<?xml version="1.0" encoding="UTF-8"?>
<svg xmlns="http://www.w3.org/2000/svg" xmlns:xlink="http://www.w3.org/1999/xlink" width="2100" height="2100" viewBox="0 0 2100 2100">
<path fill-rule="evenodd" fill="rgb(100%, 100%, 100%)" fill-opacity="1" d="M 2096.011719 0 L -3.996094 0 L -3.996094 2100 L 2096.011719 2100 L 2096.011719 0 "/>
<path fill="none" stroke-width="102.19" stroke-linecap="round" stroke-linejoin="round" stroke="rgb(0%, 0%, 0%)" stroke-opacity="1" stroke-miterlimit="10" d="M 16246.796875 22850.78125 L 16246.796875 17783.28125 L 15215.117188 16751.601562 L 14458.007812 16751.601562 " transform="matrix(0.1, 0, 0, -0.1, 0, 2100)"/>
<path fill="none" stroke-width="102.19" stroke-linecap="round" stroke-linejoin="round" stroke="rgb(0%, 0%, 0%)" stroke-opacity="1" stroke-miterlimit="10" d="M 16655.195312 22654.21875 L 16655.195312 17374.882812 L 15623.515625 16343.085938 L 13517.1875 16343.085938 " transform="matrix(0.1, 0, 0, -0.1, 0, 2100)"/>
<path fill="none" stroke-width="102.19" stroke-linecap="round" stroke-linejoin="round" stroke="rgb(0%, 0%, 0%)" stroke-opacity="1" stroke-miterlimit="10" d="M 17063.710938 22457.695312 L 17063.710938 16966.40625 L 16031.914062 15934.6875 L 15170.507812 15934.6875 L 14471.289062 15235.585938 " transform="matrix(0.1, 0, 0, -0.1, 0, 2100)"/>
<path fill="none" stroke-width="102.19" stroke-linecap="round" stroke-linejoin="round" stroke="rgb(0%, 0%, 0%)" stroke-opacity="1" stroke-miterlimit="10" d="M 17472.109375 22261.289062 L 17472.109375 16558.007812 L 13784.21875 12870.117188 " transform="matrix(0.1, 0, 0, -0.1, 0, 2100)"/>
<path fill="none" stroke-width="102.19" stroke-linecap="round" stroke-linejoin="round" stroke="rgb(0%, 0%, 0%)" stroke-opacity="1" stroke-miterlimit="10" d="M 14256.40625 16701.992188 C 14256.40625 16674.414062 14278.789062 16651.992188 14306.40625 16651.992188 L 14406.40625 16651.992188 C 14433.984375 16651.992188 14456.40625 16674.414062 14456.40625 16701.992188 L 14456.40625 16802.109375 C 14456.40625 16829.6875 14433.984375 16852.109375 14406.40625 16852.109375 L 14306.40625 16852.109375 C 14278.789062 16852.109375 14256.40625 16829.6875 14256.40625 16802.109375 Z M 14256.40625 16701.992188 " transform="matrix(0.1, 0, 0, -0.1, 0, 2100)"/>
<path fill="none" stroke-width="102.19" stroke-linecap="round" stroke-linejoin="round" stroke="rgb(0%, 0%, 0%)" stroke-opacity="1" stroke-miterlimit="10" d="M 13317.1875 16294.414062 C 13317.1875 16266.796875 13339.609375 16244.414062 13367.1875 16244.414062 L 13467.1875 16244.414062 C 13494.804688 16244.414062 13517.1875 16266.796875 13517.1875 16294.414062 L 13517.1875 16394.492188 C 13517.1875 16422.109375 13494.804688 16444.492188 13467.1875 16444.492188 L 13367.1875 16444.492188 C 13339.609375 16444.492188 13317.1875 16422.109375 13317.1875 16394.492188 Z M 13317.1875 16294.414062 " transform="matrix(0.1, 0, 0, -0.1, 0, 2100)"/>
<path fill="none" stroke-width="102.19" stroke-linecap="round" stroke-linejoin="round" stroke="rgb(0%, 0%, 0%)" stroke-opacity="1" stroke-miterlimit="10" d="M 14293.710938 15201.015625 C 14274.21875 15181.484375 14274.21875 15149.804688 14293.710938 15130.3125 L 14364.414062 15059.609375 C 14383.90625 15040 14415.585938 15040 14435.195312 15059.609375 L 14505.898438 15130.3125 C 14525.390625 15149.804688 14525.390625 15181.484375 14505.898438 15201.015625 L 14435.195312 15271.71875 C 14415.585938 15291.289062 14383.90625 15291.289062 14364.414062 15271.71875 Z M 14293.710938 15201.015625 " transform="matrix(0.1, 0, 0, -0.1, 0, 2100)"/>
<path fill="none" stroke-width="102.19" stroke-linecap="round" stroke-linejoin="round" stroke="rgb(0%, 0%, 0%)" stroke-opacity="1" stroke-miterlimit="10" d="M 13607.304688 12834.6875 C 13587.8125 12815.195312 13587.8125 12783.515625 13607.304688 12763.90625 L 13678.085938 12693.203125 C 13697.617188 12673.710938 13729.296875 12673.710938 13748.789062 12693.203125 L 13819.492188 12763.90625 C 13839.101562 12783.515625 13839.101562 12815.195312 13819.492188 12834.6875 L 13748.789062 12905.390625 C 13729.296875 12924.882812 13697.617188 12924.882812 13678.085938 12905.390625 Z M 13607.304688 12834.6875 " transform="matrix(0.1, 0, 0, -0.1, 0, 2100)"/>
<path fill="none" stroke-width="102.19" stroke-linecap="round" stroke-linejoin="round" stroke="rgb(0%, 0%, 0%)" stroke-opacity="1" stroke-miterlimit="10" d="M 23686.601562 11870.898438 L 21821.992188 13776.40625 L 17936.796875 13776.40625 L 16905 12744.6875 L 16905 11987.617188 " transform="matrix(0.1, 0, 0, -0.1, 0, 2100)"/>
<path fill="none" stroke-width="102.19" stroke-linecap="round" stroke-linejoin="round" stroke="rgb(0%, 0%, 0%)" stroke-opacity="1" stroke-miterlimit="10" d="M 23689.296875 12513.59375 L 22018.007812 14184.882812 L 17528.28125 14184.882812 L 16496.601562 13153.085938 L 16496.601562 10896.796875 " transform="matrix(0.1, 0, 0, -0.1, 0, 2100)"/>
<path fill="none" stroke-width="102.19" stroke-linecap="round" stroke-linejoin="round" stroke="rgb(0%, 0%, 0%)" stroke-opacity="1" stroke-miterlimit="10" d="M 23689.296875 13118.085938 L 22214.101562 14593.28125 L 17119.882812 14593.28125 L 16088.085938 13561.484375 L 16088.085938 12700.117188 L 15388.984375 12000.898438 " transform="matrix(0.1, 0, 0, -0.1, 0, 2100)"/>
<path fill="none" stroke-width="102.19" stroke-linecap="round" stroke-linejoin="round" stroke="rgb(0%, 0%, 0%)" stroke-opacity="1" stroke-miterlimit="10" d="M 23689.296875 13722.617188 L 22410.117188 15001.71875 L 16711.40625 15001.71875 L 13023.515625 11313.789062 " transform="matrix(0.1, 0, 0, -0.1, 0, 2100)"/>
<path fill="none" stroke-width="102.19" stroke-linecap="round" stroke-linejoin="round" stroke="rgb(0%, 0%, 0%)" stroke-opacity="1" stroke-miterlimit="10" d="M 16855.507812 11786.015625 C 16827.890625 11786.015625 16805.507812 11808.398438 16805.507812 11836.015625 L 16805.507812 11936.015625 C 16805.507812 11963.59375 16827.890625 11986.015625 16855.507812 11986.015625 L 16955.507812 11986.015625 C 16983.085938 11986.015625 17005.507812 11963.59375 17005.507812 11936.015625 L 17005.507812 11836.015625 C 17005.507812 11808.398438 16983.085938 11786.015625 16955.507812 11786.015625 Z M 16855.507812 11786.015625 " transform="matrix(0.1, 0, 0, -0.1, 0, 2100)"/>
<path fill="none" stroke-width="102.19" stroke-linecap="round" stroke-linejoin="round" stroke="rgb(0%, 0%, 0%)" stroke-opacity="1" stroke-miterlimit="10" d="M 16447.890625 10696.796875 C 16420.3125 10696.796875 16397.890625 10719.21875 16397.890625 10746.796875 L 16397.890625 10846.796875 C 16397.890625 10874.414062 16420.3125 10896.796875 16447.890625 10896.796875 L 16547.890625 10896.796875 C 16575.507812 10896.796875 16597.890625 10874.414062 16597.890625 10846.796875 L 16597.890625 10746.796875 C 16597.890625 10719.21875 16575.507812 10696.796875 16547.890625 10696.796875 Z M 16447.890625 10696.796875 " transform="matrix(0.1, 0, 0, -0.1, 0, 2100)"/>
<path fill="none" stroke-width="102.19" stroke-linecap="round" stroke-linejoin="round" stroke="rgb(0%, 0%, 0%)" stroke-opacity="1" stroke-miterlimit="10" d="M 15354.492188 11823.28125 C 15334.882812 11803.789062 15303.28125 11803.789062 15283.710938 11823.28125 L 15213.007812 11893.984375 C 15193.515625 11913.59375 15193.515625 11945.3125 15213.007812 11964.804688 L 15283.710938 12035.507812 C 15303.28125 12055 15334.882812 12055 15354.492188 12035.507812 L 15425.195312 11964.804688 C 15444.6875 11945.3125 15444.6875 11913.59375 15425.195312 11893.984375 Z M 15354.492188 11823.28125 " transform="matrix(0.1, 0, 0, -0.1, 0, 2100)"/>
<path fill="none" stroke-width="102.19" stroke-linecap="round" stroke-linejoin="round" stroke="rgb(0%, 0%, 0%)" stroke-opacity="1" stroke-miterlimit="10" d="M 12988.085938 11136.914062 C 12968.59375 11117.382812 12936.914062 11117.382812 12917.382812 11136.914062 L 12846.71875 11207.695312 C 12827.109375 11227.1875 12827.109375 11258.90625 12846.71875 11278.398438 L 12917.382812 11349.21875 C 12936.914062 11368.710938 12968.59375 11368.710938 12988.085938 11349.21875 L 13058.90625 11278.398438 C 13078.398438 11258.90625 13078.398438 11227.1875 13058.90625 11207.695312 Z M 12988.085938 11136.914062 " transform="matrix(0.1, 0, 0, -0.1, 0, 2100)"/>
<path fill="none" stroke-width="102.19" stroke-linecap="round" stroke-linejoin="round" stroke="rgb(0%, 0%, 0%)" stroke-opacity="1" stroke-miterlimit="10" d="M 8500.039062 21573.90625 L 8500.039062 16082.695312 L 7468.28125 15050.898438 L 6606.835938 15050.898438 L 5907.695312 14351.796875 " transform="matrix(0.1, 0, 0, -0.1, 0, 2100)"/>
<path fill="none" stroke-width="102.19" stroke-linecap="round" stroke-linejoin="round" stroke="rgb(0%, 0%, 0%)" stroke-opacity="1" stroke-miterlimit="10" d="M 8908.476562 21377.5 L 8908.476562 15674.21875 L 5220.507812 11986.289062 " transform="matrix(0.1, 0, 0, -0.1, 0, 2100)"/>
<path fill="none" stroke-width="102.19" stroke-linecap="round" stroke-linejoin="round" stroke="rgb(0%, 0%, 0%)" stroke-opacity="1" stroke-miterlimit="10" d="M 5730.039062 14317.1875 C 5710.546875 14297.695312 5710.546875 14266.015625 5730.039062 14246.484375 L 5800.78125 14175.78125 C 5820.3125 14156.289062 5851.992188 14156.289062 5871.523438 14175.78125 L 5942.226562 14246.484375 C 5961.757812 14266.015625 5961.757812 14297.695312 5942.226562 14317.1875 L 5871.523438 14388.007812 C 5851.992188 14407.5 5820.3125 14407.5 5800.78125 14388.007812 Z M 5730.039062 14317.1875 " transform="matrix(0.1, 0, 0, -0.1, 0, 2100)"/>
<path fill="none" stroke-width="102.19" stroke-linecap="round" stroke-linejoin="round" stroke="rgb(0%, 0%, 0%)" stroke-opacity="1" stroke-miterlimit="10" d="M 5043.671875 11950.898438 C 5024.179688 11931.40625 5024.179688 11899.6875 5043.671875 11880.195312 L 5114.414062 11809.414062 C 5133.945312 11789.882812 5165.625 11789.882812 5185.15625 11809.414062 L 5255.898438 11880.195312 C 5275.390625 11899.6875 5275.390625 11931.40625 5255.898438 11950.898438 L 5185.15625 12021.601562 C 5165.625 12041.210938 5133.945312 12041.210938 5114.414062 12021.601562 Z M 5043.671875 11950.898438 " transform="matrix(0.1, 0, 0, -0.1, 0, 2100)"/>
<path fill="none" stroke-width="102.19" stroke-linecap="round" stroke-linejoin="round" stroke="rgb(0%, 0%, 0%)" stroke-opacity="1" stroke-miterlimit="10" d="M 8239.804688 3390.117188 L 10149.414062 5258.75 " transform="matrix(0.1, 0, 0, -0.1, 0, 2100)"/>
<path fill="none" stroke-width="102.19" stroke-linecap="round" stroke-linejoin="round" stroke="rgb(0%, 0%, 0%)" stroke-opacity="1" stroke-miterlimit="10" d="M 10557.8125 5062.265625 L 10557.8125 10553.59375 L 11589.609375 11585.3125 L 12451.015625 11585.3125 L 13150.117188 12284.414062 " transform="matrix(0.1, 0, 0, -0.1, 0, 2100)"/>
<path fill="none" stroke-width="102.19" stroke-linecap="round" stroke-linejoin="round" stroke="rgb(0%, 0%, 0%)" stroke-opacity="1" stroke-miterlimit="10" d="M 10149.414062 5258.75 L 10149.414062 10961.992188 L 13837.304688 14649.882812 " transform="matrix(0.1, 0, 0, -0.1, 0, 2100)"/>
<path fill="none" stroke-width="102.19" stroke-linecap="round" stroke-linejoin="round" stroke="rgb(0%, 0%, 0%)" stroke-opacity="1" stroke-miterlimit="10" d="M 13327.8125 12318.984375 C 13347.304688 12338.515625 13347.304688 12370.195312 13327.8125 12389.6875 L 13257.109375 12460.390625 C 13237.5 12480 13205.78125 12480 13186.289062 12460.390625 L 13115.585938 12389.6875 C 13096.09375 12370.195312 13096.09375 12338.515625 13115.585938 12318.984375 L 13186.289062 12248.28125 C 13205.78125 12228.710938 13237.5 12228.710938 13257.109375 12248.28125 Z M 13327.8125 12318.984375 " transform="matrix(0.1, 0, 0, -0.1, 0, 2100)"/>
<path fill="none" stroke-width="102.19" stroke-linecap="round" stroke-linejoin="round" stroke="rgb(0%, 0%, 0%)" stroke-opacity="1" stroke-miterlimit="10" d="M 14014.101562 14685.3125 C 14033.710938 14704.804688 14033.710938 14736.484375 14014.101562 14756.09375 L 13943.398438 14826.796875 C 13923.90625 14846.289062 13892.1875 14846.289062 13872.695312 14826.796875 L 13801.914062 14756.09375 C 13782.382812 14736.484375 13782.382812 14704.804688 13801.914062 14685.3125 L 13872.695312 14614.609375 C 13892.1875 14595.117188 13923.90625 14595.117188 13943.398438 14614.609375 Z M 14014.101562 14685.3125 " transform="matrix(0.1, 0, 0, -0.1, 0, 2100)"/>
<path fill="none" stroke-width="102.19" stroke-linecap="round" stroke-linejoin="round" stroke="rgb(0%, 0%, 0%)" stroke-opacity="1" stroke-miterlimit="10" d="M 8882.929688 3387.421875 L 10557.8125 5062.265625 " transform="matrix(0.1, 0, 0, -0.1, 0, 2100)"/>
<path fill="none" stroke-width="102.19" stroke-linecap="round" stroke-linejoin="round" stroke="rgb(0%, 0%, 0%)" stroke-opacity="1" stroke-miterlimit="10" d="M 8060.195312 3281.171875 C 8040.664062 3300.703125 8040.664062 3332.421875 8060.195312 3351.953125 L 8130.976562 3422.734375 C 8150.546875 3442.265625 8182.265625 3442.265625 8201.796875 3422.734375 L 8272.578125 3351.953125 C 8292.109375 3332.421875 8292.109375 3300.703125 8272.578125 3281.171875 L 8201.796875 3210.390625 C 8182.265625 3190.859375 8150.546875 3190.859375 8130.976562 3210.390625 Z M 8060.195312 3281.171875 " transform="matrix(0.1, 0, 0, -0.1, 0, 2100)"/>
<path fill="none" stroke-width="102.19" stroke-linecap="round" stroke-linejoin="round" stroke="rgb(0%, 0%, 0%)" stroke-opacity="1" stroke-miterlimit="10" d="M 8706.054688 3281.171875 C 8686.523438 3300.703125 8686.523438 3332.421875 8706.054688 3351.953125 L 8776.835938 3422.734375 C 8796.367188 3442.265625 8828.085938 3442.265625 8847.617188 3422.734375 L 8918.398438 3351.953125 C 8937.929688 3332.421875 8937.929688 3300.703125 8918.398438 3281.171875 L 8847.617188 3210.390625 C 8828.085938 3190.859375 8796.367188 3190.859375 8776.835938 3210.390625 Z M 8706.054688 3281.171875 " transform="matrix(0.1, 0, 0, -0.1, 0, 2100)"/>
<path fill="none" stroke-width="102.19" stroke-linecap="round" stroke-linejoin="round" stroke="rgb(0%, 0%, 0%)" stroke-opacity="1" stroke-miterlimit="10" d="M 13824.101562 19948.398438 C 13843.59375 19968.007812 13875.3125 19968.007812 13894.804688 19948.398438 L 13965.507812 19877.695312 C 13985.117188 19858.203125 13985.117188 19826.484375 13965.507812 19806.992188 L 13894.804688 19736.210938 C 13875.3125 19716.71875 13843.59375 19716.71875 13824.101562 19736.210938 L 13753.398438 19806.992188 C 13733.789062 19826.484375 13733.789062 19858.203125 13753.398438 19877.695312 Z M 13824.101562 19948.398438 " transform="matrix(0.1, 0, 0, -0.1, 0, 2100)"/>
<path fill="none" stroke-width="102.19" stroke-linecap="round" stroke-linejoin="round" stroke="rgb(0%, 0%, 0%)" stroke-opacity="1" stroke-miterlimit="10" d="M 13788.710938 19771.601562 L 10611.796875 16594.609375 " transform="matrix(0.1, 0, 0, -0.1, 0, 2100)"/>
<path fill="none" stroke-width="102.19" stroke-linecap="round" stroke-linejoin="round" stroke="rgb(0%, 0%, 0%)" stroke-opacity="1" stroke-miterlimit="10" d="M 10505.703125 16630 C 10525.195312 16649.492188 10556.914062 16649.492188 10576.40625 16630 L 10647.109375 16559.296875 C 10666.601562 16539.804688 10666.601562 16508.085938 10647.109375 16488.515625 L 10576.40625 16417.8125 C 10556.914062 16398.28125 10525.195312 16398.28125 10505.703125 16417.8125 L 10434.882812 16488.515625 C 10415.390625 16508.085938 10415.390625 16539.804688 10434.882812 16559.296875 Z M 10505.703125 16630 " transform="matrix(0.1, 0, 0, -0.1, 0, 2100)"/>
<path fill="none" stroke-width="102.19" stroke-linecap="round" stroke-linejoin="round" stroke="rgb(0%, 0%, 0%)" stroke-opacity="1" stroke-miterlimit="10" d="M 14834.101562 11588.398438 C 14853.59375 11607.890625 14885.3125 11607.890625 14904.804688 11588.398438 L 14975.507812 11517.695312 C 14995.117188 11498.203125 14995.117188 11466.484375 14975.507812 11446.992188 L 14904.804688 11376.210938 C 14885.3125 11356.71875 14853.59375 11356.71875 14834.101562 11376.210938 L 14763.398438 11446.992188 C 14743.789062 11466.484375 14743.789062 11498.203125 14763.398438 11517.695312 Z M 14834.101562 11588.398438 " transform="matrix(0.1, 0, 0, -0.1, 0, 2100)"/>
<path fill="none" stroke-width="102.19" stroke-linecap="round" stroke-linejoin="round" stroke="rgb(0%, 0%, 0%)" stroke-opacity="1" stroke-miterlimit="10" d="M 11515.703125 8270 C 11535.195312 8289.53125 11566.914062 8289.53125 11586.40625 8270 L 11657.109375 8199.296875 C 11676.601562 8179.765625 11676.601562 8148.046875 11657.109375 8128.554688 L 11586.40625 8057.8125 C 11566.914062 8038.28125 11535.195312 8038.28125 11515.703125 8057.8125 L 11444.882812 8128.554688 C 11425.390625 8148.046875 11425.390625 8179.765625 11444.882812 8199.296875 Z M 11515.703125 8270 " transform="matrix(0.1, 0, 0, -0.1, 0, 2100)"/>
<path fill="none" stroke-width="102.19" stroke-linecap="round" stroke-linejoin="round" stroke="rgb(0%, 0%, 0%)" stroke-opacity="1" stroke-miterlimit="10" d="M 14798.710938 11411.601562 L 11621.796875 8234.648438 " transform="matrix(0.1, 0, 0, -0.1, 0, 2100)"/>
<path fill="none" stroke-width="102.19" stroke-linecap="round" stroke-linejoin="round" stroke="rgb(0%, 0%, 0%)" stroke-opacity="1" stroke-miterlimit="10" d="M 10859.414062 13236.914062 L 10859.414062 15500.195312 L 11670.507812 16319.414062 L 12648.203125 16319.414062 " transform="matrix(0.1, 0, 0, -0.1, 0, 2100)"/>
<path fill="none" stroke-width="102.19" stroke-linecap="round" stroke-linejoin="round" stroke="rgb(0%, 0%, 0%)" stroke-opacity="1" stroke-miterlimit="10" d="M 10451.015625 13433.398438 L 10451.015625 15696.09375 " transform="matrix(0.1, 0, 0, -0.1, 0, 2100)"/>
<path fill="none" stroke-width="102.19" stroke-linecap="round" stroke-linejoin="round" stroke="rgb(0%, 0%, 0%)" stroke-opacity="1" stroke-miterlimit="10" d="M 10451.015625 15696.09375 L 11482.8125 16727.890625 L 12344.21875 16727.890625 L 13043.398438 17426.992188 " transform="matrix(0.1, 0, 0, -0.1, 0, 2100)"/>
<path fill="none" stroke-width="102.19" stroke-linecap="round" stroke-linejoin="round" stroke="rgb(0%, 0%, 0%)" stroke-opacity="1" stroke-miterlimit="10" d="M 12849.882812 16368.984375 C 12849.882812 16396.601562 12827.5 16418.984375 12799.882812 16418.984375 L 12699.804688 16418.984375 C 12672.1875 16418.984375 12649.804688 16396.601562 12649.804688 16368.984375 L 12649.804688 16268.90625 C 12649.804688 16241.289062 12672.1875 16218.90625 12699.804688 16218.90625 L 12799.882812 16218.90625 C 12827.5 16218.90625 12849.882812 16241.289062 12849.882812 16268.90625 Z M 12849.882812 16368.984375 " transform="matrix(0.1, 0, 0, -0.1, 0, 2100)"/>
<path fill="none" stroke-width="102.19" stroke-linecap="round" stroke-linejoin="round" stroke="rgb(0%, 0%, 0%)" stroke-opacity="1" stroke-miterlimit="10" d="M 13221.015625 17461.484375 C 13240.507812 17481.09375 13240.507812 17512.8125 13221.015625 17532.304688 L 13150.3125 17603.007812 C 13130.78125 17622.5 13099.101562 17622.5 13079.492188 17603.007812 L 13008.789062 17532.304688 C 12989.296875 17512.8125 12989.296875 17481.09375 13008.789062 17461.484375 L 13079.492188 17390.78125 C 13099.101562 17371.289062 13130.78125 17371.289062 13150.3125 17390.78125 Z M 13221.015625 17461.484375 " transform="matrix(0.1, 0, 0, -0.1, 0, 2100)"/>
<path fill="none" stroke-width="102.19" stroke-linecap="round" stroke-linejoin="round" stroke="rgb(0%, 0%, 0%)" stroke-opacity="1" stroke-miterlimit="10" d="M 8323.632812 9050.585938 L 8972.65625 9699.609375 L 8972.65625 11955 L 10451.015625 13433.398438 " transform="matrix(0.1, 0, 0, -0.1, 0, 2100)"/>
<path fill="none" stroke-width="102.19" stroke-linecap="round" stroke-linejoin="round" stroke="rgb(0%, 0%, 0%)" stroke-opacity="1" stroke-miterlimit="10" d="M 8323.632812 8437.460938 L 9389.609375 9503.4375 L 9389.609375 11766.992188 L 10859.414062 13236.914062 " transform="matrix(0.1, 0, 0, -0.1, 0, 2100)"/>
<path fill="none" stroke-width="102.19" stroke-linecap="round" stroke-linejoin="round" stroke="rgb(0%, 0%, 0%)" stroke-opacity="1" stroke-miterlimit="10" d="M 8216.09375 9087.34375 C 8235.625 9106.875 8267.34375 9106.875 8286.875 9087.34375 L 8357.65625 9016.5625 C 8377.226562 8996.992188 8377.226562 8965.273438 8357.65625 8945.742188 L 8286.875 8874.960938 C 8267.34375 8855.429688 8235.625 8855.429688 8216.09375 8874.960938 L 8145.3125 8945.742188 C 8125.78125 8965.273438 8125.78125 8996.992188 8145.3125 9016.5625 Z M 8216.09375 9087.34375 " transform="matrix(0.1, 0, 0, -0.1, 0, 2100)"/>
<path fill="none" stroke-width="102.19" stroke-linecap="round" stroke-linejoin="round" stroke="rgb(0%, 0%, 0%)" stroke-opacity="1" stroke-miterlimit="10" d="M 8216.09375 8474.21875 C 8235.625 8493.710938 8267.34375 8493.710938 8286.875 8474.21875 L 8357.65625 8403.398438 C 8377.226562 8383.867188 8377.226562 8352.148438 8357.65625 8332.617188 L 8286.875 8261.835938 C 8267.34375 8242.304688 8235.625 8242.304688 8216.09375 8261.835938 L 8145.3125 8332.617188 C 8125.78125 8352.148438 8125.78125 8383.867188 8145.3125 8403.398438 Z M 8216.09375 8474.21875 " transform="matrix(0.1, 0, 0, -0.1, 0, 2100)"/>
</svg>
