<?xml version="1.0" encoding="UTF-8"?>
<svg xmlns="http://www.w3.org/2000/svg" xmlns:xlink="http://www.w3.org/1999/xlink" width="2100" height="2100" viewBox="0 0 2100 2100">

<path fill="none" stroke-width="102.19" stroke-linecap="round" stroke-linejoin="round" stroke="rgb(15, 12, 41)" stroke-opacity="1" stroke-miterlimit="10" d="M 10853.085938 21680.78125 L 10853.085938 16613.28125 L 11884.804688 15581.601562 L 12641.914062 15581.601562 " transform="matrix(0.1, 0, 0, -0.1, 0, 2100)"/>
<path fill="none" stroke-width="102.19" stroke-linecap="round" stroke-linejoin="round" stroke="rgb(15, 12, 41)" stroke-opacity="1" stroke-miterlimit="10" d="M 10444.609375 21484.21875 L 10444.609375 16204.882812 L 11476.40625 15173.085938 L 13582.695312 15173.085938 " transform="matrix(0.1, 0, 0, -0.1, 0, 2100)"/>
<path fill="none" stroke-width="102.19" stroke-linecap="round" stroke-linejoin="round" stroke="rgb(15, 12, 41)" stroke-opacity="1" stroke-miterlimit="10" d="M 10036.210938 21287.695312 L 10036.210938 15796.40625 L 11068.007812 14764.6875 L 11929.414062 14764.6875 L 12628.59375 14065.585938 " transform="matrix(0.1, 0, 0, -0.1, 0, 2100)"/>
<path fill="none" stroke-width="102.19" stroke-linecap="round" stroke-linejoin="round" stroke="rgb(15, 12, 41)" stroke-opacity="1" stroke-miterlimit="10" d="M 9627.773438 21091.289062 L 9627.773438 15388.007812 L 13315.703125 11700.117188 " transform="matrix(0.1, 0, 0, -0.1, 0, 2100)"/>
<path fill="none" stroke-width="102.19" stroke-linecap="round" stroke-linejoin="round" stroke="rgb(15, 12, 41)" stroke-opacity="1" stroke-miterlimit="10" d="M 12843.515625 15531.992188 C 12843.515625 15504.414062 12821.09375 15481.992188 12793.515625 15481.992188 L 12693.515625 15481.992188 C 12665.898438 15481.992188 12643.515625 15504.414062 12643.515625 15531.992188 L 12643.515625 15632.109375 C 12643.515625 15659.6875 12665.898438 15682.109375 12693.515625 15682.109375 L 12793.515625 15682.109375 C 12821.09375 15682.109375 12843.515625 15659.6875 12843.515625 15632.109375 Z M 12843.515625 15531.992188 " transform="matrix(0.1, 0, 0, -0.1, 0, 2100)"/>
<path fill="none" stroke-width="102.19" stroke-linecap="round" stroke-linejoin="round" stroke="rgb(15, 12, 41)" stroke-opacity="1" stroke-miterlimit="10" d="M 13782.695312 15124.414062 C 13782.695312 15096.796875 13760.3125 15074.414062 13732.695312 15074.414062 L 13632.695312 15074.414062 C 13605.117188 15074.414062 13582.695312 15096.796875 13582.695312 15124.414062 L 13582.695312 15224.492188 C 13582.695312 15252.109375 13605.117188 15274.492188 13632.695312 15274.492188 L 13732.695312 15274.492188 C 13760.3125 15274.492188 13782.695312 15252.109375 13782.695312 15224.492188 Z M 13782.695312 15124.414062 " transform="matrix(0.1, 0, 0, -0.1, 0, 2100)"/>
<path fill="none" stroke-width="102.19" stroke-linecap="round" stroke-linejoin="round" stroke="rgb(15, 12, 41)" stroke-opacity="1" stroke-miterlimit="10" d="M 12806.210938 14031.015625 C 12825.703125 14011.484375 12825.703125 13979.804688 12806.210938 13960.3125 L 12735.507812 13889.609375 C 12715.898438 13870 12684.296875 13870 12664.6875 13889.609375 L 12593.984375 13960.3125 C 12574.492188 13979.804688 12574.492188 14011.484375 12593.984375 14031.015625 L 12664.6875 14101.71875 C 12684.296875 14121.289062 12715.898438 14121.289062 12735.507812 14101.71875 Z M 12806.210938 14031.015625 " transform="matrix(0.1, 0, 0, -0.1, 0, 2100)"/>
<path fill="none" stroke-width="102.19" stroke-linecap="round" stroke-linejoin="round" stroke="rgb(15, 12, 41)" stroke-opacity="1" stroke-miterlimit="10" d="M 13492.617188 11664.6875 C 13512.109375 11645.195312 13512.109375 11613.515625 13492.617188 11593.90625 L 13421.796875 11523.203125 C 13402.304688 11503.710938 13370.585938 11503.710938 13351.09375 11523.203125 L 13280.390625 11593.90625 C 13260.78125 11613.515625 13260.78125 11645.195312 13280.390625 11664.6875 L 13351.09375 11735.390625 C 13370.585938 11754.882812 13402.304688 11754.882812 13421.796875 11735.390625 Z M 13492.617188 11664.6875 " transform="matrix(0.1, 0, 0, -0.1, 0, 2100)"/>
<path fill="none" stroke-width="102.19" stroke-linecap="round" stroke-linejoin="round" stroke="rgb(15, 12, 41)" stroke-opacity="1" stroke-miterlimit="10" d="M -2416.71875 10700.898438 L -552.070312 12606.40625 L 9163.125 12606.40625 L 10194.882812 11574.6875 L 10194.882812 10817.617188 " transform="matrix(0.1, 0, 0, -0.1, 0, 2100)"/>
<path fill="none" stroke-width="102.19" stroke-linecap="round" stroke-linejoin="round" stroke="rgb(15, 12, 41)" stroke-opacity="1" stroke-miterlimit="10" d="M -2419.414062 11343.59375 L -748.125 13014.882812 L 9571.5625 13014.882812 L 10603.28125 11983.085938 L 10603.28125 9726.835938 " transform="matrix(0.1, 0, 0, -0.1, 0, 2100)"/>
<path fill="none" stroke-width="102.19" stroke-linecap="round" stroke-linejoin="round" stroke="rgb(15, 12, 41)" stroke-opacity="1" stroke-miterlimit="10" d="M -2419.414062 11948.085938 L -944.179688 13423.28125 L 9980 13423.28125 L 11011.796875 12391.484375 L 11011.796875 11530.117188 L 11710.898438 10830.898438 " transform="matrix(0.1, 0, 0, -0.1, 0, 2100)"/>
<path fill="none" stroke-width="102.19" stroke-linecap="round" stroke-linejoin="round" stroke="rgb(15, 12, 41)" stroke-opacity="1" stroke-miterlimit="10" d="M -2419.414062 12552.617188 L -1140.234375 13831.71875 L 10388.398438 13831.71875 L 14076.40625 10143.789062 " transform="matrix(0.1, 0, 0, -0.1, 0, 2100)"/>
<path fill="none" stroke-width="102.19" stroke-linecap="round" stroke-linejoin="round" stroke="rgb(15, 12, 41)" stroke-opacity="1" stroke-miterlimit="10" d="M 10244.414062 10616.015625 C 10271.992188 10616.015625 10294.414062 10638.398438 10294.414062 10666.015625 L 10294.414062 10766.015625 C 10294.414062 10793.59375 10271.992188 10816.015625 10244.414062 10816.015625 L 10144.414062 10816.015625 C 10116.796875 10816.015625 10094.414062 10793.59375 10094.414062 10766.015625 L 10094.414062 10666.015625 C 10094.414062 10638.398438 10116.796875 10616.015625 10144.414062 10616.015625 Z M 10244.414062 10616.015625 " transform="matrix(0.1, 0, 0, -0.1, 0, 2100)"/>
<path fill="none" stroke-width="102.19" stroke-linecap="round" stroke-linejoin="round" stroke="rgb(15, 12, 41)" stroke-opacity="1" stroke-miterlimit="10" d="M 10651.992188 9526.796875 C 10679.609375 9526.796875 10701.992188 9549.179688 10701.992188 9576.796875 L 10701.992188 9676.835938 C 10701.992188 9704.414062 10679.609375 9726.835938 10651.992188 9726.835938 L 10551.992188 9726.835938 C 10524.414062 9726.835938 10501.992188 9704.414062 10501.992188 9676.835938 L 10501.992188 9576.796875 C 10501.992188 9549.179688 10524.414062 9526.796875 10551.992188 9526.796875 Z M 10651.992188 9526.796875 " transform="matrix(0.1, 0, 0, -0.1, 0, 2100)"/>
<path fill="none" stroke-width="102.19" stroke-linecap="round" stroke-linejoin="round" stroke="rgb(15, 12, 41)" stroke-opacity="1" stroke-miterlimit="10" d="M 11745.390625 10653.28125 C 11764.882812 10633.789062 11796.601562 10633.789062 11816.210938 10653.28125 L 11886.914062 10723.984375 C 11906.40625 10743.59375 11906.40625 10775.3125 11886.914062 10794.804688 L 11816.210938 10865.507812 C 11796.601562 10885 11764.882812 10885 11745.390625 10865.507812 L 11674.6875 10794.804688 C 11655.195312 10775.3125 11655.195312 10743.59375 11674.6875 10723.984375 Z M 11745.390625 10653.28125 " transform="matrix(0.1, 0, 0, -0.1, 0, 2100)"/>
<path fill="none" stroke-width="102.19" stroke-linecap="round" stroke-linejoin="round" stroke="rgb(15, 12, 41)" stroke-opacity="1" stroke-miterlimit="10" d="M 14111.796875 9966.953125 C 14131.289062 9947.421875 14163.007812 9947.421875 14182.5 9966.953125 L 14253.203125 10037.695312 C 14272.695312 10057.1875 14272.695312 10088.90625 14253.203125 10108.398438 L 14182.5 10179.101562 C 14163.007812 10198.710938 14131.289062 10198.710938 14111.796875 10179.101562 L 14041.015625 10108.398438 C 14021.484375 10088.90625 14021.484375 10057.1875 14041.015625 10037.695312 Z M 14111.796875 9966.953125 " transform="matrix(0.1, 0, 0, -0.1, 0, 2100)"/>
<path fill="none" stroke-width="102.19" stroke-linecap="round" stroke-linejoin="round" stroke="rgb(15, 12, 41)" stroke-opacity="1" stroke-miterlimit="10" d="M 16281.914062 22076.09375 L 18191.40625 20207.5 " transform="matrix(0.1, 0, 0, -0.1, 0, 2100)"/>
<path fill="none" stroke-width="102.19" stroke-linecap="round" stroke-linejoin="round" stroke="rgb(15, 12, 41)" stroke-opacity="1" stroke-miterlimit="10" d="M 18599.882812 20403.90625 L 18599.882812 14912.695312 L 19631.601562 13880.898438 L 20493.085938 13880.898438 L 21192.1875 13181.796875 " transform="matrix(0.1, 0, 0, -0.1, 0, 2100)"/>
<path fill="none" stroke-width="102.19" stroke-linecap="round" stroke-linejoin="round" stroke="rgb(15, 12, 41)" stroke-opacity="1" stroke-miterlimit="10" d="M 18191.40625 20207.5 L 18191.40625 14504.21875 L 21879.414062 10816.289062 " transform="matrix(0.1, 0, 0, -0.1, 0, 2100)"/>
<path fill="none" stroke-width="102.19" stroke-linecap="round" stroke-linejoin="round" stroke="rgb(15, 12, 41)" stroke-opacity="1" stroke-miterlimit="10" d="M 16925 22078.789062 L 18599.882812 20403.90625 " transform="matrix(0.1, 0, 0, -0.1, 0, 2100)"/>
<path fill="none" stroke-width="102.19" stroke-linecap="round" stroke-linejoin="round" stroke="rgb(15, 12, 41)" stroke-opacity="1" stroke-miterlimit="10" d="M 4382.03125 8796.875 L 7053.59375 8825.859375 " transform="matrix(0.1, 0, 0, -0.1, 0, 2100)"/>
<path fill="none" stroke-width="102.19" stroke-linecap="round" stroke-linejoin="round" stroke="rgb(15, 12, 41)" stroke-opacity="1" stroke-miterlimit="10" d="M 7203.476562 9253.554688 L 8466.40625 7990.664062 L 9925.507812 7990.664062 L 10534.6875 8599.804688 L 11523.398438 8599.804688 " transform="matrix(0.1, 0, 0, -0.1, 0, 2100)"/>
<path fill="none" stroke-width="102.19" stroke-linecap="round" stroke-linejoin="round" stroke="rgb(15, 12, 41)" stroke-opacity="1" stroke-miterlimit="10" d="M 7053.59375 8825.859375 L 8466.40625 7413.046875 L 13681.992188 7413.046875 " transform="matrix(0.1, 0, 0, -0.1, 0, 2100)"/>
<path fill="none" stroke-width="102.19" stroke-linecap="round" stroke-linejoin="round" stroke="rgb(15, 12, 41)" stroke-opacity="1" stroke-miterlimit="10" d="M 11673.398438 8700.976562 C 11701.015625 8700.976562 11723.398438 8678.554688 11723.398438 8650.976562 L 11723.398438 8550.9375 C 11723.398438 8523.320312 11701.015625 8500.9375 11673.398438 8500.9375 L 11573.398438 8500.9375 C 11545.78125 8500.9375 11523.398438 8523.320312 11523.398438 8550.9375 L 11523.398438 8650.976562 C 11523.398438 8678.554688 11545.78125 8700.976562 11573.398438 8700.976562 Z M 11673.398438 8700.976562 " transform="matrix(0.1, 0, 0, -0.1, 0, 2100)"/>
<path fill="none" stroke-width="102.19" stroke-linecap="round" stroke-linejoin="round" stroke="rgb(15, 12, 41)" stroke-opacity="1" stroke-miterlimit="10" d="M 13831.992188 7513.046875 C 13859.609375 7513.046875 13881.992188 7490.664062 13881.992188 7463.046875 L 13881.992188 7363.007812 C 13881.992188 7335.390625 13859.609375 7313.007812 13831.992188 7313.007812 L 13731.992188 7313.007812 C 13704.414062 7313.007812 13681.992188 7335.390625 13681.992188 7363.007812 L 13681.992188 7463.046875 C 13681.992188 7490.664062 13704.414062 7513.046875 13731.992188 7513.046875 Z M 13831.992188 7513.046875 " transform="matrix(0.1, 0, 0, -0.1, 0, 2100)"/>
<path fill="none" stroke-width="102.19" stroke-linecap="round" stroke-linejoin="round" stroke="rgb(15, 12, 41)" stroke-opacity="1" stroke-miterlimit="10" d="M 4834.882812 9253.554688 L 7203.476562 9253.554688 " transform="matrix(0.1, 0, 0, -0.1, 0, 2100)"/>
<path fill="none" stroke-width="102.19" stroke-linecap="round" stroke-linejoin="round" stroke="rgb(15, 12, 41)" stroke-opacity="1" stroke-miterlimit="10" d="M 4177.96875 8746.953125 C 4177.96875 8719.335938 4200.390625 8696.875 4228.046875 8696.875 L 4328.125 8696.875 C 4355.78125 8696.875 4378.203125 8719.335938 4378.203125 8746.953125 L 4378.203125 8847.03125 C 4378.203125 8874.6875 4355.78125 8897.109375 4328.125 8897.109375 L 4228.046875 8897.109375 C 4200.390625 8897.109375 4177.96875 8874.6875 4177.96875 8847.03125 Z M 4177.96875 8746.953125 " transform="matrix(0.1, 0, 0, -0.1, 0, 2100)"/>
<path fill="none" stroke-width="102.19" stroke-linecap="round" stroke-linejoin="round" stroke="rgb(15, 12, 41)" stroke-opacity="1" stroke-miterlimit="10" d="M 4634.648438 9203.632812 C 4634.648438 9175.976562 4657.109375 9153.554688 4684.726562 9153.554688 L 4784.804688 9153.554688 C 4812.421875 9153.554688 4834.882812 9175.976562 4834.882812 9203.632812 L 4834.882812 9303.710938 C 4834.882812 9331.367188 4812.421875 9353.789062 4784.804688 9353.789062 L 4684.726562 9353.789062 C 4657.109375 9353.789062 4634.648438 9331.367188 4634.648438 9303.710938 Z M 4634.648438 9203.632812 " transform="matrix(0.1, 0, 0, -0.1, 0, 2100)"/>
<path fill="none" stroke-width="102.19" stroke-linecap="round" stroke-linejoin="round" stroke="rgb(15, 12, 41)" stroke-opacity="1" stroke-miterlimit="10" d="M 3840.039062 8299.882812 L 1168.476562 8270.9375 " transform="matrix(0.1, 0, 0, -0.1, 0, 2100)"/>
<path fill="none" stroke-width="102.19" stroke-linecap="round" stroke-linejoin="round" stroke="rgb(15, 12, 41)" stroke-opacity="1" stroke-miterlimit="10" d="M 1018.59375 7843.203125 L -244.335938 9106.132812 L -1703.4375 9106.132812 L -2312.578125 8496.992188 L -3301.328125 8496.992188 " transform="matrix(0.1, 0, 0, -0.1, 0, 2100)"/>
<path fill="none" stroke-width="102.19" stroke-linecap="round" stroke-linejoin="round" stroke="rgb(15, 12, 41)" stroke-opacity="1" stroke-miterlimit="10" d="M 1168.476562 8270.9375 L -244.335938 9683.75 L -5459.882812 9683.75 " transform="matrix(0.1, 0, 0, -0.1, 0, 2100)"/>
<path fill="none" stroke-width="102.19" stroke-linecap="round" stroke-linejoin="round" stroke="rgb(15, 12, 41)" stroke-opacity="1" stroke-miterlimit="10" d="M 3387.1875 7843.203125 L 1018.59375 7843.203125 " transform="matrix(0.1, 0, 0, -0.1, 0, 2100)"/>
<path fill="none" stroke-width="102.19" stroke-linecap="round" stroke-linejoin="round" stroke="rgb(15, 12, 41)" stroke-opacity="1" stroke-miterlimit="10" d="M 4044.101562 8349.84375 C 4044.101562 8377.460938 4021.640625 8399.882812 3994.023438 8399.882812 L 3893.945312 8399.882812 C 3866.289062 8399.882812 3843.867188 8377.460938 3843.867188 8349.84375 L 3843.867188 8249.726562 C 3843.867188 8222.109375 3866.289062 8199.6875 3893.945312 8199.6875 L 3994.023438 8199.6875 C 4021.640625 8199.6875 4044.101562 8222.109375 4044.101562 8249.726562 Z M 4044.101562 8349.84375 " transform="matrix(0.1, 0, 0, -0.1, 0, 2100)"/>
<path fill="none" stroke-width="102.19" stroke-linecap="round" stroke-linejoin="round" stroke="rgb(15, 12, 41)" stroke-opacity="1" stroke-miterlimit="10" d="M 3587.421875 7893.164062 C 3587.421875 7920.78125 3565 7943.203125 3537.34375 7943.203125 L 3437.265625 7943.203125 C 3409.648438 7943.203125 3387.1875 7920.78125 3387.1875 7893.164062 L 3387.1875 7793.046875 C 3387.1875 7765.429688 3409.648438 7743.007812 3437.265625 7743.007812 L 3537.34375 7743.007812 C 3565 7743.007812 3587.421875 7765.429688 3587.421875 7793.046875 Z M 3587.421875 7893.164062 " transform="matrix(0.1, 0, 0, -0.1, 0, 2100)"/>
<path fill="none" stroke-width="102.19" stroke-linecap="round" stroke-linejoin="round" stroke="rgb(15, 12, 41)" stroke-opacity="1" stroke-miterlimit="10" d="M 18860.117188 2220.117188 L 16950.507812 4088.75 " transform="matrix(0.1, 0, 0, -0.1, 0, 2100)"/>
<path fill="none" stroke-width="102.19" stroke-linecap="round" stroke-linejoin="round" stroke="rgb(15, 12, 41)" stroke-opacity="1" stroke-miterlimit="10" d="M 16542.109375 3892.265625 L 16542.109375 9383.554688 L 15510.3125 10415.3125 L 14648.90625 10415.3125 L 13949.804688 11114.414062 " transform="matrix(0.1, 0, 0, -0.1, 0, 2100)"/>
<path fill="none" stroke-width="102.19" stroke-linecap="round" stroke-linejoin="round" stroke="rgb(15, 12, 41)" stroke-opacity="1" stroke-miterlimit="10" d="M 16950.507812 4088.75 L 16950.507812 9791.992188 L 13262.617188 13479.882812 " transform="matrix(0.1, 0, 0, -0.1, 0, 2100)"/>
<path fill="none" stroke-width="102.19" stroke-linecap="round" stroke-linejoin="round" stroke="rgb(15, 12, 41)" stroke-opacity="1" stroke-miterlimit="10" d="M 13772.109375 11148.984375 C 13752.617188 11168.515625 13752.617188 11200.195312 13772.109375 11219.6875 L 13842.8125 11290.390625 C 13862.382812 11310 13894.101562 11310 13913.59375 11290.390625 L 13984.296875 11219.6875 C 14003.789062 11200.195312 14003.789062 11168.515625 13984.296875 11148.984375 L 13913.59375 11078.28125 C 13894.101562 11058.710938 13862.382812 11058.710938 13842.8125 11078.28125 Z M 13772.109375 11148.984375 " transform="matrix(0.1, 0, 0, -0.1, 0, 2100)"/>
<path fill="none" stroke-width="102.19" stroke-linecap="round" stroke-linejoin="round" stroke="rgb(15, 12, 41)" stroke-opacity="1" stroke-miterlimit="10" d="M 13085.78125 13515.3125 C 13066.210938 13534.804688 13066.210938 13566.484375 13085.78125 13586.09375 L 13156.484375 13656.796875 C 13176.015625 13676.289062 13207.695312 13676.289062 13227.1875 13656.796875 L 13297.890625 13586.09375 C 13317.5 13566.484375 13317.5 13534.804688 13297.890625 13515.3125 L 13227.1875 13444.609375 C 13207.695312 13425.117188 13176.015625 13425.117188 13156.484375 13444.609375 Z M 13085.78125 13515.3125 " transform="matrix(0.1, 0, 0, -0.1, 0, 2100)"/>
<path fill="none" stroke-width="102.19" stroke-linecap="round" stroke-linejoin="round" stroke="rgb(15, 12, 41)" stroke-opacity="1" stroke-miterlimit="10" d="M 18216.914062 2217.421875 L 16542.109375 3892.265625 " transform="matrix(0.1, 0, 0, -0.1, 0, 2100)"/>
<path fill="none" stroke-width="102.19" stroke-linecap="round" stroke-linejoin="round" stroke="rgb(15, 12, 41)" stroke-opacity="1" stroke-miterlimit="10" d="M 19039.6875 2111.171875 C 19059.21875 2130.703125 19059.21875 2162.421875 19039.6875 2181.953125 L 18968.90625 2252.734375 C 18949.414062 2272.265625 18917.617188 2272.265625 18898.085938 2252.734375 L 18827.304688 2181.953125 C 18807.8125 2162.421875 18807.8125 2130.703125 18827.304688 2111.171875 L 18898.085938 2040.390625 C 18917.617188 2020.859375 18949.414062 2020.859375 18968.90625 2040.390625 Z M 19039.6875 2111.171875 " transform="matrix(0.1, 0, 0, -0.1, 0, 2100)"/>
<path fill="none" stroke-width="102.19" stroke-linecap="round" stroke-linejoin="round" stroke="rgb(15, 12, 41)" stroke-opacity="1" stroke-miterlimit="10" d="M 18393.90625 2111.171875 C 18413.398438 2130.703125 18413.398438 2162.421875 18393.90625 2181.953125 L 18323.085938 2252.734375 C 18303.515625 2272.265625 18271.796875 2272.265625 18252.304688 2252.734375 L 18181.484375 2181.953125 C 18161.914062 2162.421875 18161.914062 2130.703125 18181.484375 2111.171875 L 18252.304688 2040.390625 C 18271.796875 2020.859375 18303.515625 2020.859375 18323.085938 2040.390625 Z M 18393.90625 2111.171875 " transform="matrix(0.1, 0, 0, -0.1, 0, 2100)"/>
<path fill="none" stroke-width="102.19" stroke-linecap="round" stroke-linejoin="round" stroke="rgb(15, 12, 41)" stroke-opacity="1" stroke-miterlimit="10" d="M 2594.53125 6905.664062 L 5266.09375 6934.609375 " transform="matrix(0.1, 0, 0, -0.1, 0, 2100)"/>
<path fill="none" stroke-width="102.19" stroke-linecap="round" stroke-linejoin="round" stroke="rgb(15, 12, 41)" stroke-opacity="1" stroke-miterlimit="10" d="M 5415.976562 7362.34375 L 11868.90625 909.414062 L 13328.007812 909.414062 L 13937.1875 1518.554688 L 14925.898438 1518.554688 " transform="matrix(0.1, 0, 0, -0.1, 0, 2100)"/>
<path fill="none" stroke-width="102.19" stroke-linecap="round" stroke-linejoin="round" stroke="rgb(15, 12, 41)" stroke-opacity="1" stroke-miterlimit="10" d="M 5266.09375 6934.609375 L 11868.90625 331.796875 L 20534.492188 331.796875 " transform="matrix(0.1, 0, 0, -0.1, 0, 2100)"/>
<path fill="none" stroke-width="102.19" stroke-linecap="round" stroke-linejoin="round" stroke="rgb(15, 12, 41)" stroke-opacity="1" stroke-miterlimit="10" d="M 15075.898438 1619.726562 C 15103.515625 1619.726562 15125.898438 1597.34375 15125.898438 1569.726562 L 15125.898438 1469.6875 C 15125.898438 1442.109375 15103.515625 1419.6875 15075.898438 1419.6875 L 14975.898438 1419.6875 C 14948.28125 1419.6875 14925.898438 1442.109375 14925.898438 1469.6875 L 14925.898438 1569.726562 C 14925.898438 1597.34375 14948.28125 1619.726562 14975.898438 1619.726562 Z M 15075.898438 1619.726562 " transform="matrix(0.1, 0, 0, -0.1, 0, 2100)"/>
<path fill="none" stroke-width="102.19" stroke-linecap="round" stroke-linejoin="round" stroke="rgb(15, 12, 41)" stroke-opacity="1" stroke-miterlimit="10" d="M 20684.492188 431.835938 C 20712.109375 431.835938 20734.492188 409.414062 20734.492188 381.796875 L 20734.492188 281.757812 C 20734.492188 254.179688 20712.109375 231.757812 20684.492188 231.757812 L 20584.492188 231.757812 C 20556.914062 231.757812 20534.492188 254.179688 20534.492188 281.757812 L 20534.492188 381.796875 C 20534.492188 409.414062 20556.914062 431.835938 20584.492188 431.835938 Z M 20684.492188 431.835938 " transform="matrix(0.1, 0, 0, -0.1, 0, 2100)"/>
<path fill="none" stroke-width="102.19" stroke-linecap="round" stroke-linejoin="round" stroke="rgb(15, 12, 41)" stroke-opacity="1" stroke-miterlimit="10" d="M 3047.382812 7362.34375 L 5415.976562 7362.34375 " transform="matrix(0.1, 0, 0, -0.1, 0, 2100)"/>
<path fill="none" stroke-width="102.19" stroke-linecap="round" stroke-linejoin="round" stroke="rgb(15, 12, 41)" stroke-opacity="1" stroke-miterlimit="10" d="M 2390.507812 6855.703125 C 2390.507812 6828.085938 2412.890625 6805.664062 2440.546875 6805.664062 L 2540.664062 6805.664062 C 2568.28125 6805.664062 2590.703125 6828.085938 2590.703125 6855.703125 L 2590.703125 6955.820312 C 2590.703125 6983.4375 2568.28125 7005.859375 2540.664062 7005.859375 L 2440.546875 7005.859375 C 2412.890625 7005.859375 2390.507812 6983.4375 2390.507812 6955.820312 Z M 2390.507812 6855.703125 " transform="matrix(0.1, 0, 0, -0.1, 0, 2100)"/>
<path fill="none" stroke-width="102.19" stroke-linecap="round" stroke-linejoin="round" stroke="rgb(15, 12, 41)" stroke-opacity="1" stroke-miterlimit="10" d="M 2847.148438 7312.382812 C 2847.148438 7284.765625 2869.609375 7262.304688 2897.226562 7262.304688 L 2997.304688 7262.304688 C 3024.960938 7262.304688 3047.382812 7284.765625 3047.382812 7312.382812 L 3047.382812 7412.5 C 3047.382812 7440.117188 3024.960938 7462.539062 2997.304688 7462.539062 L 2897.226562 7462.539062 C 2869.609375 7462.539062 2847.148438 7440.117188 2847.148438 7412.5 Z M 2847.148438 7312.382812 " transform="matrix(0.1, 0, 0, -0.1, 0, 2100)"/>
<path fill="none" stroke-width="102.19" stroke-linecap="round" stroke-linejoin="round" stroke="rgb(15, 12, 41)" stroke-opacity="1" stroke-miterlimit="10" d="M 13275.78125 18778.398438 C 13256.289062 18798.007812 13224.609375 18798.007812 13205.117188 18778.398438 L 13134.414062 18707.695312 C 13114.804688 18688.203125 13114.804688 18656.484375 13134.414062 18636.992188 L 13205.117188 18566.210938 C 13224.609375 18546.71875 13256.289062 18546.71875 13275.78125 18566.210938 L 13346.484375 18636.992188 C 13366.09375 18656.484375 13366.09375 18688.203125 13346.484375 18707.695312 Z M 13275.78125 18778.398438 " transform="matrix(0.1, 0, 0, -0.1, 0, 2100)"/>
<path fill="none" stroke-width="102.19" stroke-linecap="round" stroke-linejoin="round" stroke="rgb(15, 12, 41)" stroke-opacity="1" stroke-miterlimit="10" d="M 13311.210938 18601.601562 L 16488.085938 15424.609375 " transform="matrix(0.1, 0, 0, -0.1, 0, 2100)"/>
<path fill="none" stroke-width="102.19" stroke-linecap="round" stroke-linejoin="round" stroke="rgb(15, 12, 41)" stroke-opacity="1" stroke-miterlimit="10" d="M 16594.21875 15460 C 16574.6875 15479.492188 16543.007812 15479.492188 16523.515625 15460 L 16452.8125 15389.296875 C 16433.28125 15369.804688 16433.28125 15338.085938 16452.8125 15318.515625 L 16523.515625 15247.8125 C 16543.007812 15228.28125 16574.6875 15228.28125 16594.21875 15247.8125 L 16665 15318.515625 C 16684.492188 15338.085938 16684.492188 15369.804688 16665 15389.296875 Z M 16594.21875 15460 " transform="matrix(0.1, 0, 0, -0.1, 0, 2100)"/>
<path fill="none" stroke-width="102.19" stroke-linecap="round" stroke-linejoin="round" stroke="rgb(15, 12, 41)" stroke-opacity="1" stroke-miterlimit="10" d="M 12265.78125 10418.398438 C 12246.289062 10437.890625 12214.609375 10437.890625 12195.117188 10418.398438 L 12124.414062 10347.695312 C 12104.804688 10328.203125 12104.804688 10296.484375 12124.414062 10276.992188 L 12195.117188 10206.210938 C 12214.609375 10186.71875 12246.289062 10186.71875 12265.78125 10206.210938 L 12336.484375 10276.992188 C 12356.09375 10296.484375 12356.09375 10328.203125 12336.484375 10347.695312 Z M 12265.78125 10418.398438 " transform="matrix(0.1, 0, 0, -0.1, 0, 2100)"/>
<path fill="none" stroke-width="102.19" stroke-linecap="round" stroke-linejoin="round" stroke="rgb(15, 12, 41)" stroke-opacity="1" stroke-miterlimit="10" d="M 15584.21875 7100 C 15564.6875 7119.53125 15533.007812 7119.53125 15513.515625 7100 L 15442.8125 7029.296875 C 15423.28125 7009.765625 15423.28125 6978.046875 15442.8125 6958.554688 L 15513.515625 6887.8125 C 15533.007812 6868.28125 15564.6875 6868.28125 15584.21875 6887.8125 L 15655 6958.554688 C 15674.492188 6978.046875 15674.492188 7009.765625 15655 7029.296875 Z M 15584.21875 7100 " transform="matrix(0.1, 0, 0, -0.1, 0, 2100)"/>
<path fill="none" stroke-width="102.19" stroke-linecap="round" stroke-linejoin="round" stroke="rgb(15, 12, 41)" stroke-opacity="1" stroke-miterlimit="10" d="M 12301.210938 10241.601562 L 15478.085938 7064.648438 " transform="matrix(0.1, 0, 0, -0.1, 0, 2100)"/>
<path fill="none" stroke-width="102.19" stroke-linecap="round" stroke-linejoin="round" stroke="rgb(15, 12, 41)" stroke-opacity="1" stroke-miterlimit="10" d="M 16240.390625 12066.914062 L 16240.390625 14330.195312 L 15429.414062 15149.414062 L 14451.71875 15149.414062 " transform="matrix(0.1, 0, 0, -0.1, 0, 2100)"/>
<path fill="none" stroke-width="102.19" stroke-linecap="round" stroke-linejoin="round" stroke="rgb(15, 12, 41)" stroke-opacity="1" stroke-miterlimit="10" d="M 16648.90625 12263.398438 L 16648.90625 14526.09375 " transform="matrix(0.1, 0, 0, -0.1, 0, 2100)"/>
<path fill="none" stroke-width="102.19" stroke-linecap="round" stroke-linejoin="round" stroke="rgb(15, 12, 41)" stroke-opacity="1" stroke-miterlimit="10" d="M 16648.90625 14526.09375 L 15617.109375 15557.890625 L 14755.703125 15557.890625 L 14056.484375 16256.992188 " transform="matrix(0.1, 0, 0, -0.1, 0, 2100)"/>
<path fill="none" stroke-width="102.19" stroke-linecap="round" stroke-linejoin="round" stroke="rgb(15, 12, 41)" stroke-opacity="1" stroke-miterlimit="10" d="M 14250 15198.984375 C 14250 15226.601562 14272.382812 15248.984375 14300 15248.984375 L 14400.117188 15248.984375 C 14427.695312 15248.984375 14450.117188 15226.601562 14450.117188 15198.984375 L 14450.117188 15098.90625 C 14450.117188 15071.289062 14427.695312 15048.90625 14400.117188 15048.90625 L 14300 15048.90625 C 14272.382812 15048.90625 14250 15071.289062 14250 15098.90625 Z M 14250 15198.984375 " transform="matrix(0.1, 0, 0, -0.1, 0, 2100)"/>
<path fill="none" stroke-width="102.19" stroke-linecap="round" stroke-linejoin="round" stroke="rgb(15, 12, 41)" stroke-opacity="1" stroke-miterlimit="10" d="M 13878.90625 16291.484375 C 13859.414062 16311.09375 13859.414062 16342.8125 13878.90625 16362.304688 L 13949.609375 16433.007812 C 13969.101562 16452.5 14000.78125 16452.5 14020.390625 16433.007812 L 14091.09375 16362.304688 C 14110.585938 16342.8125 14110.585938 16311.09375 14091.09375 16291.484375 L 14020.390625 16220.78125 C 14000.78125 16201.289062 13969.101562 16201.289062 13949.609375 16220.78125 Z M 13878.90625 16291.484375 " transform="matrix(0.1, 0, 0, -0.1, 0, 2100)"/>
<path fill="none" stroke-width="102.19" stroke-linecap="round" stroke-linejoin="round" stroke="rgb(15, 12, 41)" stroke-opacity="1" stroke-miterlimit="10" d="M 18776.289062 7880.585938 L 18127.1875 8529.609375 L 18127.1875 10785 L 16648.90625 12263.398438 " transform="matrix(0.1, 0, 0, -0.1, 0, 2100)"/>
<path fill="none" stroke-width="102.19" stroke-linecap="round" stroke-linejoin="round" stroke="rgb(15, 12, 41)" stroke-opacity="1" stroke-miterlimit="10" d="M 18776.289062 7267.460938 L 17710.3125 8333.4375 L 17710.3125 10596.992188 L 16240.390625 12066.914062 " transform="matrix(0.1, 0, 0, -0.1, 0, 2100)"/>
<path fill="none" stroke-width="102.19" stroke-linecap="round" stroke-linejoin="round" stroke="rgb(15, 12, 41)" stroke-opacity="1" stroke-miterlimit="10" d="M 18883.789062 7917.34375 C 18864.296875 7936.875 18832.5 7936.875 18813.007812 7917.34375 L 18742.1875 7846.5625 C 18722.695312 7826.992188 18722.695312 7795.273438 18742.1875 7775.742188 L 18813.007812 7704.960938 C 18832.5 7685.429688 18864.296875 7685.429688 18883.789062 7704.960938 L 18954.609375 7775.742188 C 18974.101562 7795.273438 18974.101562 7826.992188 18954.609375 7846.5625 Z M 18883.789062 7917.34375 " transform="matrix(0.1, 0, 0, -0.1, 0, 2100)"/>
<path fill="none" stroke-width="102.19" stroke-linecap="round" stroke-linejoin="round" stroke="rgb(15, 12, 41)" stroke-opacity="1" stroke-miterlimit="10" d="M 18883.789062 7304.21875 C 18864.296875 7323.710938 18832.5 7323.710938 18813.007812 7304.21875 L 18742.1875 7233.398438 C 18722.695312 7213.867188 18722.695312 7182.148438 18742.1875 7162.617188 L 18813.007812 7091.835938 C 18832.5 7072.304688 18864.296875 7072.304688 18883.789062 7091.835938 L 18954.609375 7162.617188 C 18974.101562 7182.148438 18974.101562 7213.867188 18954.609375 7233.398438 Z M 18883.789062 7304.21875 " transform="matrix(0.1, 0, 0, -0.1, 0, 2100)"/>
<path fill="none" stroke-width="102.19" stroke-linecap="round" stroke-linejoin="round" stroke="rgb(15, 12, 41)" stroke-opacity="1" stroke-miterlimit="10" d="M 6446.09375 15394.492188 L 4008.164062 15423.398438 L 2796.171875 14211.40625 L -50.351562 14211.40625 L -1681.914062 12579.804688 " transform="matrix(0.1, 0, 0, -0.1, 0, 2100)"/>
<path fill="none" stroke-width="102.19" stroke-linecap="round" stroke-linejoin="round" stroke="rgb(15, 12, 41)" stroke-opacity="1" stroke-miterlimit="10" d="M 5993.242188 15851.210938 L 3857.851562 15851.210938 L 2645.859375 14639.101562 L -200.664062 14639.101562 L -988.203125 13851.601562 " transform="matrix(0.1, 0, 0, -0.1, 0, 2100)"/>
<path fill="none" stroke-width="102.19" stroke-linecap="round" stroke-linejoin="round" stroke="rgb(15, 12, 41)" stroke-opacity="1" stroke-miterlimit="10" d="M 5565.46875 16278.90625 L 3707.578125 16278.90625 L 2495.546875 15066.914062 L -350.9375 15066.914062 L -878.398438 14539.492188 " transform="matrix(0.1, 0, 0, -0.1, 0, 2100)"/>
<path fill="none" stroke-width="102.19" stroke-linecap="round" stroke-linejoin="round" stroke="rgb(15, 12, 41)" stroke-opacity="1" stroke-miterlimit="10" d="M 5137.695312 16706.71875 L 3557.265625 16706.71875 L 2345.273438 15494.6875 L -501.25 15494.6875 L -1566.289062 14429.609375 " transform="matrix(0.1, 0, 0, -0.1, 0, 2100)"/>
<path fill="none" stroke-width="102.19" stroke-linecap="round" stroke-linejoin="round" stroke="rgb(15, 12, 41)" stroke-opacity="1" stroke-miterlimit="10" d="M 6650.117188 15344.492188 C 6650.117188 15316.914062 6627.695312 15294.492188 6600.078125 15294.492188 L 6499.960938 15294.492188 C 6472.34375 15294.492188 6449.921875 15316.914062 6449.921875 15344.492188 L 6449.921875 15444.609375 C 6449.921875 15472.304688 6472.34375 15494.6875 6499.960938 15494.6875 L 6600.078125 15494.6875 C 6627.695312 15494.6875 6650.117188 15472.304688 6650.117188 15444.609375 Z M 6650.117188 15344.492188 " transform="matrix(0.1, 0, 0, -0.1, 0, 2100)"/>
<path fill="none" stroke-width="102.19" stroke-linecap="round" stroke-linejoin="round" stroke="rgb(15, 12, 41)" stroke-opacity="1" stroke-miterlimit="10" d="M 6193.476562 15801.210938 C 6193.476562 15773.59375 6171.015625 15751.09375 6143.398438 15751.09375 L 6043.28125 15751.09375 C 6015.664062 15751.09375 5993.242188 15773.59375 5993.242188 15801.210938 L 5993.242188 15901.289062 C 5993.242188 15928.90625 6015.664062 15951.40625 6043.28125 15951.40625 L 6143.398438 15951.40625 C 6171.015625 15951.40625 6193.476562 15928.90625 6193.476562 15901.289062 Z M 6193.476562 15801.210938 " transform="matrix(0.1, 0, 0, -0.1, 0, 2100)"/>
<path fill="none" stroke-width="102.19" stroke-linecap="round" stroke-linejoin="round" stroke="rgb(15, 12, 41)" stroke-opacity="1" stroke-miterlimit="10" d="M 5765.664062 16228.984375 C 5765.664062 16201.289062 5743.242188 16178.90625 5715.625 16178.90625 L 5615.507812 16178.90625 C 5587.890625 16178.90625 5565.46875 16201.289062 5565.46875 16228.984375 L 5565.46875 16329.101562 C 5565.46875 16356.71875 5587.890625 16379.101562 5615.507812 16379.101562 L 5715.625 16379.101562 C 5743.242188 16379.101562 5765.664062 16356.71875 5765.664062 16329.101562 Z M 5765.664062 16228.984375 " transform="matrix(0.1, 0, 0, -0.1, 0, 2100)"/>
<path fill="none" stroke-width="102.19" stroke-linecap="round" stroke-linejoin="round" stroke="rgb(15, 12, 41)" stroke-opacity="1" stroke-miterlimit="10" d="M 5337.890625 16656.71875 C 5337.890625 16629.101562 5315.46875 16606.71875 5287.851562 16606.71875 L 5187.734375 16606.71875 C 5160.117188 16606.71875 5137.695312 16629.101562 5137.695312 16656.71875 L 5137.695312 16756.914062 C 5137.695312 16784.492188 5160.117188 16806.914062 5187.734375 16806.914062 L 5287.851562 16806.914062 C 5315.46875 16806.914062 5337.890625 16784.492188 5337.890625 16756.914062 Z M 5337.890625 16656.71875 " transform="matrix(0.1, 0, 0, -0.1, 0, 2100)"/>
<path fill="none" stroke-width="102.19" stroke-linecap="round" stroke-linejoin="round" stroke="rgb(15, 12, 41)" stroke-opacity="1" stroke-miterlimit="10" d="M 6446.09375 11035.703125 L 4008.164062 11006.796875 L 2796.171875 12218.789062 L -50.351562 12218.789062 L -1681.914062 13850.390625 " transform="matrix(0.1, 0, 0, -0.1, 0, 2100)"/>
<path fill="none" stroke-width="102.19" stroke-linecap="round" stroke-linejoin="round" stroke="rgb(15, 12, 41)" stroke-opacity="1" stroke-miterlimit="10" d="M 5993.242188 10578.984375 L 3857.851562 10578.984375 L 2645.859375 11791.015625 L -200.664062 11791.015625 L -988.203125 12578.59375 " transform="matrix(0.1, 0, 0, -0.1, 0, 2100)"/>
<path fill="none" stroke-width="102.19" stroke-linecap="round" stroke-linejoin="round" stroke="rgb(15, 12, 41)" stroke-opacity="1" stroke-miterlimit="10" d="M 5565.46875 10151.289062 L 3707.578125 10151.289062 L 2495.546875 11363.28125 L -350.9375 11363.28125 L -878.398438 11890.703125 " transform="matrix(0.1, 0, 0, -0.1, 0, 2100)"/>
<path fill="none" stroke-width="102.19" stroke-linecap="round" stroke-linejoin="round" stroke="rgb(15, 12, 41)" stroke-opacity="1" stroke-miterlimit="10" d="M 5137.695312 9723.476562 L 3557.265625 9723.476562 L 2345.273438 10935.507812 L -501.25 10935.507812 L -1566.289062 12000.507812 " transform="matrix(0.1, 0, 0, -0.1, 0, 2100)"/>
<path fill="none" stroke-width="102.19" stroke-linecap="round" stroke-linejoin="round" stroke="rgb(15, 12, 41)" stroke-opacity="1" stroke-miterlimit="10" d="M 6650.117188 11085.703125 C 6650.117188 11113.28125 6627.695312 11135.703125 6600.078125 11135.703125 L 6499.960938 11135.703125 C 6472.34375 11135.703125 6449.921875 11113.28125 6449.921875 11085.703125 L 6449.921875 10985.585938 C 6449.921875 10957.890625 6472.34375 10935.507812 6499.960938 10935.507812 L 6600.078125 10935.507812 C 6627.695312 10935.507812 6650.117188 10957.890625 6650.117188 10985.585938 Z M 6650.117188 11085.703125 " transform="matrix(0.1, 0, 0, -0.1, 0, 2100)"/>
<path fill="none" stroke-width="102.19" stroke-linecap="round" stroke-linejoin="round" stroke="rgb(15, 12, 41)" stroke-opacity="1" stroke-miterlimit="10" d="M 6193.476562 10628.984375 C 6193.476562 10656.601562 6171.015625 10678.984375 6143.398438 10678.984375 L 6043.28125 10678.984375 C 6015.664062 10678.984375 5993.242188 10656.601562 5993.242188 10628.984375 L 5993.242188 10528.90625 C 5993.242188 10501.289062 6015.664062 10478.789062 6043.28125 10478.789062 L 6143.398438 10478.789062 C 6171.015625 10478.789062 6193.476562 10501.289062 6193.476562 10528.90625 Z M 6193.476562 10628.984375 " transform="matrix(0.1, 0, 0, -0.1, 0, 2100)"/>
<path fill="none" stroke-width="102.19" stroke-linecap="round" stroke-linejoin="round" stroke="rgb(15, 12, 41)" stroke-opacity="1" stroke-miterlimit="10" d="M 5765.664062 10201.210938 C 5765.664062 10228.789062 5743.242188 10251.289062 5715.625 10251.289062 L 5615.507812 10251.289062 C 5587.890625 10251.289062 5565.46875 10228.789062 5565.46875 10201.210938 L 5565.46875 10101.09375 C 5565.46875 10073.515625 5587.890625 10051.09375 5615.507812 10051.09375 L 5715.625 10051.09375 C 5743.242188 10051.09375 5765.664062 10073.515625 5765.664062 10101.09375 Z M 5765.664062 10201.210938 " transform="matrix(0.1, 0, 0, -0.1, 0, 2100)"/>
<path fill="none" stroke-width="102.19" stroke-linecap="round" stroke-linejoin="round" stroke="rgb(15, 12, 41)" stroke-opacity="1" stroke-miterlimit="10" d="M 5337.890625 9773.4375 C 5337.890625 9801.054688 5315.46875 9823.476562 5287.851562 9823.476562 L 5187.734375 9823.476562 C 5160.117188 9823.476562 5137.695312 9801.054688 5137.695312 9773.4375 L 5137.695312 9673.320312 C 5137.695312 9645.703125 5160.117188 9623.28125 5187.734375 9623.28125 L 5287.851562 9623.28125 C 5315.46875 9623.28125 5337.890625 9645.703125 5337.890625 9673.320312 Z M 5337.890625 9773.4375 " transform="matrix(0.1, 0, 0, -0.1, 0, 2100)"/>
</svg>
