<?xml version="1.0" encoding="UTF-8"?>
<svg xmlns="http://www.w3.org/2000/svg" xmlns:xlink="http://www.w3.org/1999/xlink" width="2100" height="2100" viewBox="0 0 2100 2100">

<path fill="none" stroke-width="187.39" stroke-linecap="round" stroke-linejoin="round" stroke="rgb(15, 12, 41)" stroke-opacity="1" stroke-miterlimit="10" d="M 29158.789062 6430.976562 L 24489.804688 11099.882812 L 24489.804688 13775.507812 L 16787.695312 21477.617188 " transform="matrix(0.1, 0, 0, -0.1, 0, 2100)"/>
<path fill="none" stroke-width="187.39" stroke-linecap="round" stroke-linejoin="round" stroke="rgb(15, 12, 41)" stroke-opacity="1" stroke-miterlimit="10" d="M 21494.882812 -1232.929688 L 16825.898438 3436.054688 L 16825.898438 6111.640625 L 14763.085938 8174.453125 " transform="matrix(0.1, 0, 0, -0.1, 0, 2100)"/>
<path fill="none" stroke-width="187.39" stroke-linecap="round" stroke-linejoin="round" stroke="rgb(15, 12, 41)" stroke-opacity="1" stroke-miterlimit="10" d="M 24515.898438 1788.125 L 17186.289062 9117.734375 L 17186.289062 11793.28125 L 12144.804688 16834.804688 " transform="matrix(0.1, 0, 0, -0.1, 0, 2100)"/>
<path fill="none" stroke-width="187.39" stroke-linecap="round" stroke-linejoin="round" stroke="rgb(15, 12, 41)" stroke-opacity="1" stroke-miterlimit="10" d="M 25453.59375 11195.390625 L 25453.59375 13870.898438 L 15807.617188 23516.992188 " transform="matrix(0.1, 0, 0, -0.1, 0, 2100)"/>
<path fill="none" stroke-width="187.39" stroke-linecap="round" stroke-linejoin="round" stroke="rgb(15, 12, 41)" stroke-opacity="1" stroke-miterlimit="10" d="M 17789.6875 3531.445312 L 17789.6875 6207.03125 L 13782.890625 10213.789062 " transform="matrix(0.1, 0, 0, -0.1, 0, 2100)"/>
<path fill="none" stroke-width="187.39" stroke-linecap="round" stroke-linejoin="round" stroke="rgb(15, 12, 41)" stroke-opacity="1" stroke-miterlimit="10" d="M 18150.117188 9213.125 L 18150.117188 11888.710938 L 11164.6875 18874.101562 " transform="matrix(0.1, 0, 0, -0.1, 0, 2100)"/>
<path fill="none" stroke-width="187.39" stroke-linecap="round" stroke-linejoin="round" stroke="rgb(15, 12, 41)" stroke-opacity="1" stroke-miterlimit="10" d="M 17789.6875 3531.445312 L 22024.492188 -703.320312 " transform="matrix(0.1, 0, 0, -0.1, 0, 2100)"/>
<path fill="none" stroke-width="187.39" stroke-linecap="round" stroke-linejoin="round" stroke="rgb(15, 12, 41)" stroke-opacity="1" stroke-miterlimit="10" d="M 18150.117188 9213.125 L 25045.507812 2317.695312 " transform="matrix(0.1, 0, 0, -0.1, 0, 2100)"/>
<path fill="none" stroke-width="187.39" stroke-linecap="round" stroke-linejoin="round" stroke="rgb(15, 12, 41)" stroke-opacity="1" stroke-miterlimit="10" d="M 26512.8125 11195.390625 L 26512.8125 13870.898438 L 25395.78125 14987.890625 L 25395.78125 16801.015625 L 19574.296875 22622.5 " transform="matrix(0.1, 0, 0, -0.1, 0, 2100)"/>
<path fill="none" stroke-width="187.39" stroke-linecap="round" stroke-linejoin="round" stroke="rgb(15, 12, 41)" stroke-opacity="1" stroke-miterlimit="10" d="M 19209.296875 9213.125 L 19209.296875 11888.710938 L 18092.304688 13005.703125 L 18092.304688 14818.710938 L 14931.40625 17979.609375 " transform="matrix(0.1, 0, 0, -0.1, 0, 2100)"/>
<path fill="none" stroke-width="187.39" stroke-linecap="round" stroke-linejoin="round" stroke="rgb(15, 12, 41)" stroke-opacity="1" stroke-miterlimit="10" d="M 9564.648438 6481.171875 L 12208.007812 3837.773438 L 13878.789062 3837.773438 " transform="matrix(0.1, 0, 0, -0.1, 0, 2100)"/>
<path fill="none" stroke-width="187.39" stroke-linecap="round" stroke-linejoin="round" stroke="rgb(15, 12, 41)" stroke-opacity="1" stroke-miterlimit="10" d="M 6443.828125 12650.390625 L 13687.695312 5406.5625 L 14671.914062 5406.5625 " transform="matrix(0.1, 0, 0, -0.1, 0, 2100)"/>
<path fill="none" stroke-width="187.39" stroke-linecap="round" stroke-linejoin="round" stroke="rgb(15, 12, 41)" stroke-opacity="1" stroke-miterlimit="10" d="M 23592.8125 10829.21875 L 23592.8125 13504.804688 L 14048.710938 23048.90625 L 14048.710938 24861.992188 " transform="matrix(0.1, 0, 0, -0.1, 0, 2100)"/>
<path fill="none" stroke-width="187.39" stroke-linecap="round" stroke-linejoin="round" stroke="rgb(15, 12, 41)" stroke-opacity="1" stroke-miterlimit="10" d="M 15928.90625 3165.3125 L 15928.90625 5840.9375 L 12024.101562 9745.742188 L 12024.101562 11558.789062 " transform="matrix(0.1, 0, 0, -0.1, 0, 2100)"/>
<path fill="none" stroke-width="187.39" stroke-linecap="round" stroke-linejoin="round" stroke="rgb(15, 12, 41)" stroke-opacity="1" stroke-miterlimit="10" d="M 16289.414062 8846.992188 L 16289.414062 11522.617188 L 9405.898438 18406.09375 L 7584.375 18406.09375 " transform="matrix(0.1, 0, 0, -0.1, 0, 2100)"/>
<path fill="none" stroke-width="187.39" stroke-linecap="round" stroke-linejoin="round" stroke="rgb(15, 12, 41)" stroke-opacity="1" stroke-miterlimit="10" d="M 20268.515625 9213.125 L 20268.515625 14585.117188 L 17990.898438 16862.617188 " transform="matrix(0.1, 0, 0, -0.1, 0, 2100)"/>
<path fill="none" stroke-width="187.39" stroke-linecap="round" stroke-linejoin="round" stroke="rgb(15, 12, 41)" stroke-opacity="1" stroke-miterlimit="10" d="M 14567.890625 8498.085938 C 14603.710938 8533.90625 14661.796875 8533.90625 14697.617188 8498.085938 L 14827.304688 8368.398438 C 14863.085938 8332.617188 14863.085938 8274.492188 14827.304688 8238.710938 L 14697.617188 8108.984375 C 14661.796875 8073.203125 14603.710938 8073.203125 14567.890625 8108.984375 L 14438.203125 8238.710938 C 14402.382812 8274.492188 14402.382812 8332.617188 14438.203125 8368.398438 Z M 14567.890625 8498.085938 " transform="matrix(0.1, 0, 0, -0.1, 0, 2100)"/>
<path fill="none" stroke-width="187.39" stroke-linecap="round" stroke-linejoin="round" stroke="rgb(15, 12, 41)" stroke-opacity="1" stroke-miterlimit="10" d="M 11949.6875 17158.398438 C 11985.507812 17194.21875 12043.59375 17194.21875 12079.414062 17158.398438 L 12209.101562 17028.710938 C 12244.882812 16992.890625 12244.882812 16934.804688 12209.101562 16898.984375 L 12079.414062 16769.296875 C 12043.59375 16733.515625 11985.507812 16733.515625 11949.6875 16769.296875 L 11820 16898.984375 C 11784.21875 16934.804688 11784.21875 16992.890625 11820 17028.710938 Z M 11949.6875 17158.398438 " transform="matrix(0.1, 0, 0, -0.1, 0, 2100)"/>
<path fill="none" stroke-width="187.39" stroke-linecap="round" stroke-linejoin="round" stroke="rgb(15, 12, 41)" stroke-opacity="1" stroke-miterlimit="10" d="M 13586.71875 10536.40625 C 13622.5 10572.109375 13680.585938 10572.109375 13716.40625 10536.40625 L 13846.09375 10406.71875 C 13881.914062 10370.898438 13881.914062 10312.695312 13846.09375 10276.914062 L 13716.40625 10147.1875 C 13680.585938 10111.40625 13622.5 10111.40625 13586.71875 10147.1875 L 13456.992188 10276.914062 C 13421.210938 10312.695312 13421.210938 10370.898438 13456.992188 10406.71875 Z M 13586.71875 10536.40625 " transform="matrix(0.1, 0, 0, -0.1, 0, 2100)"/>
<path fill="none" stroke-width="187.39" stroke-linecap="round" stroke-linejoin="round" stroke="rgb(15, 12, 41)" stroke-opacity="1" stroke-miterlimit="10" d="M 10968.398438 19196.71875 C 11004.21875 19232.382812 11062.382812 19232.382812 11098.085938 19196.71875 L 11227.8125 19066.914062 C 11263.59375 19031.210938 11263.59375 18973.007812 11227.8125 18937.304688 L 11098.085938 18807.617188 C 11062.382812 18771.796875 11004.21875 18771.796875 10968.398438 18807.617188 L 10838.710938 18937.304688 C 10802.890625 18973.007812 10802.890625 19031.210938 10838.710938 19066.914062 Z M 10968.398438 19196.71875 " transform="matrix(0.1, 0, 0, -0.1, 0, 2100)"/>
<path fill="none" stroke-width="187.39" stroke-linecap="round" stroke-linejoin="round" stroke="rgb(15, 12, 41)" stroke-opacity="1" stroke-miterlimit="10" d="M 11838.59375 11833.90625 C 11838.59375 11884.492188 11879.6875 11925.585938 11930.3125 11925.585938 L 12113.710938 11925.585938 C 12164.296875 11925.585938 12205.390625 11884.492188 12205.390625 11833.90625 L 12205.390625 11650.507812 C 12205.390625 11599.882812 12164.296875 11558.789062 12113.710938 11558.789062 L 11930.3125 11558.789062 C 11879.6875 11558.789062 11838.59375 11599.882812 11838.59375 11650.507812 Z M 11838.59375 11833.90625 " transform="matrix(0.1, 0, 0, -0.1, 0, 2100)"/>
<path fill="none" stroke-width="187.39" stroke-linecap="round" stroke-linejoin="round" stroke="rgb(15, 12, 41)" stroke-opacity="1" stroke-miterlimit="10" d="M 7175.117188 18448.984375 C 7175.117188 18499.609375 7216.210938 18540.703125 7266.835938 18540.703125 L 7450.273438 18540.703125 C 7500.898438 18540.703125 7541.953125 18499.609375 7541.953125 18448.984375 L 7541.953125 18265.585938 C 7541.953125 18215 7500.898438 18173.90625 7450.273438 18173.90625 L 7266.835938 18173.90625 C 7216.210938 18173.90625 7175.117188 18215 7175.117188 18265.585938 Z M 7175.117188 18448.984375 " transform="matrix(0.1, 0, 0, -0.1, 0, 2100)"/>
<path fill="none" stroke-width="187.39" stroke-linecap="round" stroke-linejoin="round" stroke="rgb(15, 12, 41)" stroke-opacity="1" stroke-miterlimit="10" d="M 10203.398438 14668.59375 C 10203.398438 14719.21875 10244.492188 14760.3125 10295.117188 14760.3125 L 10478.515625 14760.3125 C 10529.101562 14760.3125 10570.195312 14719.21875 10570.195312 14668.59375 L 10570.195312 14485.117188 C 10570.195312 14434.492188 10529.101562 14393.398438 10478.515625 14393.398438 L 10295.117188 14393.398438 C 10244.492188 14393.398438 10203.398438 14434.492188 10203.398438 14485.117188 Z M 10203.398438 14668.59375 " transform="matrix(0.1, 0, 0, -0.1, 0, 2100)"/>
<path fill="none" stroke-width="187.39" stroke-linecap="round" stroke-linejoin="round" stroke="rgb(15, 12, 41)" stroke-opacity="1" stroke-miterlimit="10" d="M 14607.1875 18044.414062 C 14571.40625 18080.195312 14571.40625 18138.398438 14607.1875 18174.101562 L 14736.914062 18303.789062 C 14772.695312 18339.609375 14830.78125 18339.609375 14866.601562 18303.789062 L 14996.289062 18174.101562 C 15032.109375 18138.398438 15032.109375 18080.195312 14996.289062 18044.414062 L 14866.601562 17914.6875 C 14830.78125 17878.90625 14772.695312 17878.90625 14736.914062 17914.6875 Z M 14607.1875 18044.414062 " transform="matrix(0.1, 0, 0, -0.1, 0, 2100)"/>
<path fill="none" stroke-width="187.39" stroke-linecap="round" stroke-linejoin="round" stroke="rgb(15, 12, 41)" stroke-opacity="1" stroke-miterlimit="10" d="M 17666.71875 16927.5 C 17630.898438 16963.28125 17630.898438 17021.40625 17666.71875 17057.1875 L 17796.40625 17186.914062 C 17832.1875 17222.695312 17890.3125 17222.695312 17926.09375 17186.914062 L 18055.78125 17057.1875 C 18091.601562 17021.40625 18091.601562 16963.28125 18055.78125 16927.5 L 17926.09375 16797.8125 C 17890.3125 16761.992188 17832.1875 16761.992188 17796.40625 16797.8125 Z M 17666.71875 16927.5 " transform="matrix(0.1, 0, 0, -0.1, 0, 2100)"/>
<path fill="none" stroke-width="187.39" stroke-linecap="round" stroke-linejoin="round" stroke="rgb(15, 12, 41)" stroke-opacity="1" stroke-miterlimit="10" d="M 9112.109375 16932.5 C 9076.328125 16968.28125 9076.328125 17026.40625 9112.109375 17062.1875 L 9241.796875 17191.914062 C 9277.578125 17227.695312 9335.703125 17227.695312 9371.484375 17191.914062 L 9501.210938 17062.1875 C 9536.992188 17026.40625 9536.992188 16968.28125 9501.210938 16932.5 L 9371.484375 16802.8125 C 9335.703125 16766.992188 9277.578125 16766.992188 9241.796875 16802.8125 Z M 9112.109375 16932.5 " transform="matrix(0.1, 0, 0, -0.1, 0, 2100)"/>
<path fill="none" stroke-width="187.39" stroke-linecap="round" stroke-linejoin="round" stroke="rgb(15, 12, 41)" stroke-opacity="1" stroke-miterlimit="10" d="M 15069.882812 10974.6875 C 15034.101562 11010.507812 15034.101562 11068.59375 15069.882812 11104.414062 L 15199.609375 11234.101562 C 15235.390625 11269.882812 15293.515625 11269.882812 15329.296875 11234.101562 L 15458.984375 11104.414062 C 15494.804688 11068.59375 15494.804688 11010.507812 15458.984375 10974.6875 L 15329.296875 10845 C 15293.515625 10809.21875 15235.390625 10809.21875 15199.609375 10845 Z M 15069.882812 10974.6875 " transform="matrix(0.1, 0, 0, -0.1, 0, 2100)"/>
<path fill="none" stroke-width="187.39" stroke-linecap="round" stroke-linejoin="round" stroke="rgb(15, 12, 41)" stroke-opacity="1" stroke-miterlimit="10" d="M 20994.492188 9353.085938 C 20958.710938 9388.867188 20958.710938 9446.992188 20994.492188 9482.773438 L 21124.21875 9612.460938 C 21160 9648.28125 21218.085938 9648.28125 21253.90625 9612.460938 L 21383.59375 9482.773438 C 21419.414062 9446.992188 21419.414062 9388.867188 21383.59375 9353.085938 L 21253.90625 9223.359375 C 21218.085938 9187.578125 21160 9187.578125 21124.21875 9223.359375 Z M 20994.492188 9353.085938 " transform="matrix(0.1, 0, 0, -0.1, 0, 2100)"/>
<path fill="none" stroke-width="187.39" stroke-linecap="round" stroke-linejoin="round" stroke="rgb(15, 12, 41)" stroke-opacity="1" stroke-miterlimit="10" d="M 8970.351562 12430.703125 C 9006.132812 12394.882812 9064.257812 12394.882812 9100.078125 12430.703125 L 9229.765625 12560.390625 C 9265.546875 12596.210938 9265.546875 12654.296875 9229.765625 12690.117188 L 9100.078125 12819.804688 C 9064.257812 12855.585938 9006.132812 12855.585938 8970.351562 12819.804688 L 8840.664062 12690.117188 C 8804.84375 12654.296875 8804.84375 12596.210938 8840.664062 12560.390625 Z M 8970.351562 12430.703125 " transform="matrix(0.1, 0, 0, -0.1, 0, 2100)"/>
<path fill="none" stroke-width="187.39" stroke-linecap="round" stroke-linejoin="round" stroke="rgb(15, 12, 41)" stroke-opacity="1" stroke-miterlimit="10" d="M 2885.3125 18515.703125 C 2921.132812 18479.882812 2979.257812 18479.882812 3015.039062 18515.703125 L 3144.726562 18645.507812 C 3180.546875 18681.210938 3180.546875 18739.414062 3144.726562 18775.195312 L 3015.039062 18904.882812 C 2979.257812 18940.585938 2921.132812 18940.585938 2885.3125 18904.882812 L 2755.625 18775.195312 C 2719.84375 18739.414062 2719.84375 18681.210938 2755.625 18645.507812 Z M 2885.3125 18515.703125 " transform="matrix(0.1, 0, 0, -0.1, 0, 2100)"/>
<path fill="none" stroke-width="187.39" stroke-linecap="round" stroke-linejoin="round" stroke="rgb(15, 12, 41)" stroke-opacity="1" stroke-miterlimit="10" d="M 19936.914062 2995.390625 C 19901.09375 3031.171875 19843.007812 3031.171875 19807.1875 2995.390625 L 19677.5 2865.664062 C 19641.71875 2829.882812 19641.71875 2771.757812 19677.5 2735.976562 L 19807.1875 2606.289062 C 19843.007812 2570.507812 19901.09375 2570.507812 19936.914062 2606.289062 L 20066.601562 2735.976562 C 20102.382812 2771.757812 20102.382812 2829.882812 20066.601562 2865.664062 Z M 19936.914062 2995.390625 " transform="matrix(0.1, 0, 0, -0.1, 0, 2100)"/>
<path fill="none" stroke-width="187.39" stroke-linecap="round" stroke-linejoin="round" stroke="rgb(15, 12, 41)" stroke-opacity="1" stroke-miterlimit="10" d="M 15038.789062 5498.28125 C 15038.789062 5548.90625 14997.695312 5590 14947.109375 5590 L 14763.59375 5590 C 14713.007812 5590 14671.914062 5548.90625 14671.914062 5498.28125 L 14671.914062 5314.84375 C 14671.914062 5264.257812 14713.007812 5223.164062 14763.59375 5223.164062 L 14947.109375 5223.164062 C 14997.695312 5223.164062 15038.789062 5264.257812 15038.789062 5314.84375 Z M 15038.789062 5498.28125 " transform="matrix(0.1, 0, 0, -0.1, 0, 2100)"/>
<path fill="none" stroke-width="187.39" stroke-linecap="round" stroke-linejoin="round" stroke="rgb(15, 12, 41)" stroke-opacity="1" stroke-miterlimit="10" d="M 19166.09375 5065.429688 C 19130.3125 5101.210938 19072.1875 5101.210938 19036.40625 5065.429688 L 18906.71875 4935.703125 C 18870.898438 4899.921875 18870.898438 4841.796875 18906.71875 4806.015625 L 19036.40625 4676.328125 C 19072.1875 4640.546875 19130.3125 4640.546875 19166.09375 4676.328125 L 19295.78125 4806.015625 C 19331.601562 4841.796875 19331.601562 4899.921875 19295.78125 4935.703125 Z M 19166.09375 5065.429688 " transform="matrix(0.1, 0, 0, -0.1, 0, 2100)"/>
<path fill="none" stroke-width="187.39" stroke-linecap="round" stroke-linejoin="round" stroke="rgb(15, 12, 41)" stroke-opacity="1" stroke-miterlimit="10" d="M 10848.984375 10552.109375 C 10813.203125 10587.890625 10813.203125 10646.015625 10848.984375 10681.796875 L 10978.710938 10811.484375 C 11014.414062 10847.304688 11072.617188 10847.304688 11108.398438 10811.484375 L 11238.085938 10681.796875 C 11273.90625 10646.015625 11273.90625 10587.890625 11238.085938 10552.109375 L 11108.398438 10422.382812 C 11072.617188 10386.601562 11014.414062 10386.601562 10978.710938 10422.382812 Z M 10848.984375 10552.109375 " transform="matrix(0.1, 0, 0, -0.1, 0, 2100)"/>
<path fill="none" stroke-width="187.39" stroke-linecap="round" stroke-linejoin="round" stroke="rgb(15, 12, 41)" stroke-opacity="1" stroke-miterlimit="10" d="M 9499.765625 6805.429688 C 9463.984375 6841.210938 9405.859375 6841.210938 9370.078125 6805.429688 L 9240.351562 6675.703125 C 9204.570312 6639.921875 9204.570312 6581.796875 9240.351562 6546.015625 L 9370.078125 6416.328125 C 9405.859375 6380.546875 9463.984375 6380.546875 9499.765625 6416.328125 L 9629.492188 6546.015625 C 9665.273438 6581.796875 9665.273438 6639.921875 9629.492188 6675.703125 Z M 9499.765625 6805.429688 " transform="matrix(0.1, 0, 0, -0.1, 0, 2100)"/>
<path fill="none" stroke-width="187.39" stroke-linecap="round" stroke-linejoin="round" stroke="rgb(15, 12, 41)" stroke-opacity="1" stroke-miterlimit="10" d="M 7839.140625 10136.796875 C 7803.359375 10172.617188 7745.234375 10172.617188 7709.414062 10136.796875 L 7579.726562 10007.109375 C 7543.945312 9971.328125 7543.945312 9913.242188 7579.726562 9877.421875 L 7709.414062 9747.734375 C 7745.234375 9711.953125 7803.359375 9711.953125 7839.140625 9747.734375 L 7968.828125 9877.421875 C 8004.609375 9913.242188 8004.609375 9971.328125 7968.828125 10007.109375 Z M 7839.140625 10136.796875 " transform="matrix(0.1, 0, 0, -0.1, 0, 2100)"/>
<path fill="none" stroke-width="187.39" stroke-linecap="round" stroke-linejoin="round" stroke="rgb(15, 12, 41)" stroke-opacity="1" stroke-miterlimit="10" d="M 6378.984375 12974.6875 C 6343.164062 13010.507812 6285.078125 13010.507812 6249.257812 12974.6875 L 6119.570312 12845 C 6083.789062 12809.21875 6083.789062 12751.09375 6119.570312 12715.3125 L 6249.257812 12585.585938 C 6285.078125 12549.804688 6343.164062 12549.804688 6378.984375 12585.585938 L 6508.671875 12715.3125 C 6544.453125 12751.09375 6544.453125 12809.21875 6508.671875 12845 Z M 6378.984375 12974.6875 " transform="matrix(0.1, 0, 0, -0.1, 0, 2100)"/>
<path fill="none" stroke-width="187.39" stroke-linecap="round" stroke-linejoin="round" stroke="rgb(15, 12, 41)" stroke-opacity="1" stroke-miterlimit="10" d="M 19209.296875 9213.125 L 25575.117188 2847.304688 " transform="matrix(0.1, 0, 0, -0.1, 0, 2100)"/>
<path fill="none" stroke-width="187.39" stroke-linecap="round" stroke-linejoin="round" stroke="rgb(15, 12, 41)" stroke-opacity="1" stroke-miterlimit="10" d="M 15928.90625 3165.3125 L 20911.015625 -1816.757812 " transform="matrix(0.1, 0, 0, -0.1, 0, 2100)"/>
<path fill="none" stroke-width="187.39" stroke-linecap="round" stroke-linejoin="round" stroke="rgb(15, 12, 41)" stroke-opacity="1" stroke-miterlimit="10" d="M 16289.414062 8846.992188 L 23932.109375 1204.296875 " transform="matrix(0.1, 0, 0, -0.1, 0, 2100)"/>
<path fill="none" stroke-width="187.39" stroke-linecap="round" stroke-linejoin="round" stroke="rgb(15, 12, 41)" stroke-opacity="1" stroke-miterlimit="10" d="M 20268.515625 9213.125 L 26104.6875 3376.914062 " transform="matrix(0.1, 0, 0, -0.1, 0, 2100)"/>
<path fill="none" stroke-width="187.39" stroke-linecap="round" stroke-linejoin="round" stroke="rgb(15, 12, 41)" stroke-opacity="1" stroke-miterlimit="10" d="M 7903.984375 9812.578125 L 20222.1875 -2505.625 " transform="matrix(0.1, 0, 0, -0.1, 0, 2100)"/>
<path fill="none" stroke-width="187.39" stroke-linecap="round" stroke-linejoin="round" stroke="rgb(15, 12, 41)" stroke-opacity="1" stroke-miterlimit="10" d="M 9436.367188 16867.695312 L 15134.804688 11169.21875 " transform="matrix(0.1, 0, 0, -0.1, 0, 2100)"/>
<path fill="none" stroke-width="187.39" stroke-linecap="round" stroke-linejoin="round" stroke="rgb(15, 12, 41)" stroke-opacity="1" stroke-miterlimit="10" d="M 8905.507812 12755 L 3079.882812 18580.585938 " transform="matrix(0.1, 0, 0, -0.1, 0, 2100)"/>
<path fill="none" stroke-width="187.39" stroke-linecap="round" stroke-linejoin="round" stroke="rgb(15, 12, 41)" stroke-opacity="1" stroke-miterlimit="10" d="M 20001.71875 2671.132812 L 22689.6875 -16.835938 " transform="matrix(0.1, 0, 0, -0.1, 0, 2100)"/>
<path fill="none" stroke-width="187.39" stroke-linecap="round" stroke-linejoin="round" stroke="rgb(15, 12, 41)" stroke-opacity="1" stroke-miterlimit="10" d="M 19230.898438 4741.171875 L 23339.296875 632.773438 " transform="matrix(0.1, 0, 0, -0.1, 0, 2100)"/>
<path fill="none" stroke-width="187.39" stroke-linecap="round" stroke-linejoin="round" stroke="rgb(15, 12, 41)" stroke-opacity="1" stroke-miterlimit="10" d="M 10913.789062 10746.71875 L 10384.414062 11276.09375 " transform="matrix(0.1, 0, 0, -0.1, 0, 2100)"/>
<path fill="none" stroke-width="187.39" stroke-linecap="round" stroke-linejoin="round" stroke="rgb(15, 12, 41)" stroke-opacity="1" stroke-miterlimit="10" d="M 10384.414062 11276.09375 L 10384.414062 14393.398438 " transform="matrix(0.1, 0, 0, -0.1, 0, 2100)"/>
</svg>
