<svg width="1803" height="321" viewBox="0 0 1803 321" fill="none" xmlns="http://www.w3.org/2000/svg">
<g clip-path="url(#clip0_2054_28)">
<path d="M1549 307.5L1751.8 222.1L1687.6 157L1549 307.5ZM1623.5 92L1687.7 157L1802.3 17L1623.5 92Z" fill="url(#paint0_linear_2054_28)"/>
</g>
<g clip-path="url(#clip1_2054_28)">
<path d="M305.996 146.486C305.996 227.385 237.503 292.97 153 292.97C68.4966 292.97 0.00341797 227.385 0.00341797 146.486C0.00341797 65.5865 68.4982 0 153 0C237.501 0 305.996 65.5802 305.996 146.486Z" fill="white"/>
<path d="M153 0C68.5267 0 -0.0878799 65.6793 0.0196575 146.481C0.0408391 162.647 2.73335 178.197 7.78679 192.743H53.5619V69.516L153 164.718L252.433 69.516V192.746H298.217C303.278 178.2 305.957 162.65 305.987 146.483C306.131 65.5974 237.482 0.0194996 153 0.0194996V0Z" fill="#F26822"/>
<path d="M130.132 186.605L86.7364 145.055V222.596H53.5587L22.2515 222.602C49.1057 264.783 97.6376 293 153 293C208.362 293 256.896 264.777 283.755 222.596H219.253V145.055L175.856 186.605L152.995 208.492L130.133 186.605H130.132Z" fill="#4D4D4D"/>
</g>
<g clip-path="url(#clip2_2054_28)">
<path d="M698.463 3H748.326L644.557 107.291C606.977 145.038 546.05 145.038 508.443 107.291L404.633 3H454.537L533.375 82.2234C544.862 93.7146 560.342 100.156 576.47 100.156C592.597 100.156 608.078 93.7146 619.564 82.2234L698.463 3Z" fill="#23292F"/>
<path d="M453.897 293H404L508.443 188.067C546.023 150.319 606.95 150.319 644.557 188.067L749 293H699.137L619.625 213.134C608.138 201.642 592.658 195.201 576.53 195.201C560.402 195.201 544.922 201.642 533.436 213.134L453.897 293Z" fill="#23292F"/>
</g>
<g clip-path="url(#clip3_2054_28)">
<path d="M929.465 0L926.81 7.06448V212.041L929.465 214.116L1050.93 157.875L929.465 0Z" fill="#343434"/>
<path d="M929.464 0L808 157.875L929.464 214.116V114.626V0Z" fill="#8C8C8C"/>
<path d="M929.464 232.131L927.968 233.56V306.576L929.464 309.998L1051 175.918L929.464 232.131Z" fill="#3C3C3B"/>
<path d="M929.464 309.998V232.131L808 175.918L929.464 309.998Z" fill="#8C8C8C"/>
<path d="M929.464 214.116L1050.93 157.875L929.464 114.626V214.116Z" fill="#141414"/>
<path d="M808 157.875L929.464 214.116V114.626L808 157.875Z" fill="#393939"/>
</g>
<g clip-path="url(#clip4_2054_28)">
<path d="M1472.09 200.463C1450.19 285.642 1361.19 337.481 1273.31 316.24C1185.47 295.004 1132 208.726 1153.91 123.554C1175.81 38.3649 1264.8 -13.4775 1352.66 7.75807C1440.53 28.9937 1494 115.281 1472.09 200.465L1472.09 200.463H1472.09Z" fill="#F7931A"/>
<path d="M1385.32 139.346C1388.59 118.187 1371.97 106.813 1349.25 99.2254L1356.62 70.5631L1338.62 66.2156L1331.45 94.1233C1326.71 92.9793 1321.85 91.9013 1317.03 90.8327L1324.25 62.7408L1306.27 58.3933L1298.89 87.0463C1294.97 86.1821 1291.13 85.3279 1287.4 84.428L1287.42 84.3378L1262.6 78.3295L1257.81 96.9646C1257.81 96.9646 1271.16 99.9319 1270.88 100.115C1278.17 101.878 1279.49 106.555 1279.27 110.262L1270.87 142.915C1271.38 143.039 1272.03 143.218 1272.74 143.497C1272.14 143.353 1271.5 143.195 1270.84 143.041L1259.07 188.783C1258.18 190.93 1255.92 194.151 1250.82 192.928C1251.01 193.182 1237.74 189.763 1237.74 189.763L1228.81 209.735L1252.23 215.396C1256.59 216.455 1260.86 217.563 1265.06 218.605L1257.61 247.596L1275.59 251.944L1282.97 223.261C1287.88 224.553 1292.64 225.745 1297.31 226.869L1289.96 255.417L1307.96 259.765L1315.41 230.828C1346.1 236.459 1369.17 234.188 1378.89 207.278C1386.71 185.612 1378.5 173.115 1362.35 164.965C1374.11 162.336 1382.97 154.838 1385.33 139.349L1385.33 139.345L1385.32 139.346ZM1344.2 195.246C1338.64 216.912 1301.01 205.2 1288.81 202.263L1298.69 163.855C1310.89 166.807 1350.02 172.65 1344.2 195.246H1344.2ZM1349.77 139.032C1344.7 158.74 1313.37 148.728 1303.21 146.273L1312.18 111.439C1322.34 113.894 1355.05 118.476 1349.77 139.032H1349.77Z" fill="white"/>
</g>
<defs>
<linearGradient id="paint0_linear_2054_28" x1="1549" y1="162.253" x2="1802.26" y2="162.253" gradientUnits="userSpaceOnUse">
<stop stop-color="#00CCFF"/>
<stop offset="1" stop-color="#33FF99"/>
</linearGradient>
<clipPath id="clip0_2054_28">
<rect width="253.3" height="290.5" fill="white" transform="translate(1549 17)"/>
</clipPath>
<clipPath id="clip1_2054_28">
<rect width="306" height="293" fill="white"/>
</clipPath>
<clipPath id="clip2_2054_28">
<rect width="345" height="290" fill="white" transform="translate(404 3)"/>
</clipPath>
<clipPath id="clip3_2054_28">
<rect width="243" height="310" fill="white" transform="translate(808)"/>
</clipPath>
<clipPath id="clip4_2054_28">
<rect width="328" height="318" fill="white" transform="translate(1149 3)"/>
</clipPath>
</defs>
</svg>
